/* XPM */
static char *end[] = {
/* columns rows colors chars-per-pixel */
"64 64 143 2 ",
"   c black",
".  c #010101",
"X  c #020202",
"o  c gray1",
"O  c #040404",
"+  c #060606",
"@  c #090909",
"#  c gray4",
"$  c #0B0B0B",
"%  c #111111",
"&  c gray7",
"*  c #131313",
"=  c #151515",
"-  c gray9",
";  c #191919",
":  c #1B1B1B",
">  c gray11",
",  c #1D1D1D",
"<  c #1E1E1E",
"1  c gray12",
"2  c #222222",
"3  c #232323",
"4  c gray14",
"5  c #252525",
"6  c gray15",
"7  c #272727",
"8  c #282828",
"9  c gray16",
"0  c #2A2A2A",
"q  c gray17",
"w  c #2C2C2C",
"e  c #2D2D2D",
"r  c gray18",
"t  c #2F2F2F",
"y  c gray19",
"u  c #313131",
"i  c #323232",
"p  c gray20",
"a  c #343434",
"s  c gray21",
"d  c #373737",
"f  c #393939",
"g  c #3A3A3A",
"h  c gray23",
"j  c #3C3C3C",
"k  c gray24",
"l  c #3F3F3F",
"z  c gray25",
"x  c gray26",
"c  c #434343",
"v  c #444444",
"b  c gray27",
"n  c gray28",
"m  c #484848",
"M  c #494949",
"N  c #4B4B4B",
"B  c gray30",
"V  c #4E4E4E",
"C  c gray31",
"Z  c #505050",
"A  c #515151",
"S  c gray32",
"D  c gray33",
"F  c #555555",
"G  c #565656",
"H  c gray34",
"J  c gray35",
"K  c #5B5B5B",
"L  c gray36",
"P  c #5D5D5D",
"I  c #5F5F5F",
"U  c #606060",
"Y  c gray38",
"T  c #626262",
"R  c #646464",
"E  c #656565",
"W  c #686868",
"Q  c DimGray",
"!  c gray43",
"~  c gray45",
"^  c gray46",
"/  c gray47",
"(  c #797979",
")  c gray49",
"_  c #7E7E7E",
"`  c #808080",
"'  c #818181",
"]  c #848484",
"[  c gray52",
"{  c #868686",
"}  c gray53",
"|  c #888888",
" . c gray54",
".. c gray57",
"X. c #929292",
"o. c #979797",
"O. c gray60",
"+. c #9A9A9A",
"@. c gray61",
"#. c #9D9D9D",
"$. c #9F9F9F",
"%. c gray64",
"&. c #A4A4A4",
"*. c gray65",
"=. c gray66",
"-. c #AAAAAA",
";. c gray67",
":. c gray69",
">. c #B2B2B2",
",. c gray71",
"<. c gray73",
"1. c #BBBBBB",
"2. c #BCBCBC",
"3. c gray",
"4. c #C0C0C0",
"5. c gray76",
"6. c #CBCBCB",
"7. c #CECECE",
"8. c gray81",
"9. c gray82",
"0. c LightGray",
"q. c #D5D5D5",
"w. c #D8D8D8",
"e. c gray85",
"r. c #DADADA",
"t. c #DDDDDD",
"y. c #DFDFDF",
"u. c gray88",
"i. c #E2E2E2",
"p. c #E4E4E4",
"a. c #E9E9E9",
"s. c gray92",
"d. c gray93",
"f. c gray94",
"g. c #F1F1F1",
"h. c #F3F3F3",
"j. c gray97",
"k. c #F9F9F9",
"l. c gray98",
"z. c #FBFBFB",
"x. c #FEFEFE",
"c. c white",
"v. c None",
/* pixels */
"v.v.v.v.v.v.v.v.v.v.v.v.v.v.v.v.v.v.v.v.v.v.v.v.v.v.v.v.v.v.v.v.v.v.v.v.v.v.v.v.v.v.v.v.v.v.v.v.v.v.v.v.v.v.v.v.v.v.v.v.v.v.v.v.",
"v.v.v.v.v.v.v.v.v.v.v.v.v.v.v.v.v.v.v.v.v.v.v.v.v.v.v.v.v.v.v.v.v.v.v.v.v.v.v.v.v.v.v.v.v.v.v.v.v.v.v.v.v.v.v.v.v.v.v.v.v.v.v.v.",
"v.v.v.v.v.v.v.v.v.v.v.v.v.v.v.v.v.v.v.v.v.v.v.v.v.v.v.v.v.v.v.v.v.v.v.v.v.v.v.v.v.v.v.v.v.v.v.v.v.v.v.v.v.v.v.v.v.v.v.v.v.v.v.v.",
"v.v.v.v.v.v.v.v.v.v.v.v.v.v.v.v.v.v.v.v.v.v.v.v.v.v.v.v.v.v.v.v.v.v.v.v.v.v.v.v.v.v.v.v.v.v.v.v.v.v.v.v.v.v.v.v.v.v.v.v.v.v.v.v.",
"v.v.v.v.v.v.v.v.v.v.v.v.v.v.v.v.v.v.v.v.v.v.v.v.v.v.v.v.v.v.v.v.v.v.v.v.v.v.v.v.v.v.v.v.v.v.v.v.v.v.v.v.v.v.v.v.v.v.v.v.v.v.v.v.",
"v.v.v.v.v.v.v.v.v.v.                                                                                          v.v.v.v.v.v.v.v.v.",
"v.v.v.v.v.v.v.v.v.                                                                                            v.v.v.v.v.v.v.v.v.",
"v.v.v.v.v.v.v.v.v.      $ Z Z Z Z Z Z f             c Z Z s   + Z Z Z >             Z Z Z m s 5 %             v.v.v.v.v.v.v.v.v.",
"v.v.v.v.v.v.v.v.v.      5 c.c.c.c.c.c.1.            0.c.c.u.  % c.c.c.L             c.c.c.c.c.c.c.6.j         v.v.v.v.v.v.v.v.v.",
"v.v.v.v.v.v.v.v.v.      5 c.c.c.c.c.c.1.            0.c.c.c.u = c.c.c.L             c.c.c.c.c.c.c.c.h.%       v.v.v.v.v.v.v.v.v.",
"v.v.v.v.v.v.v.v.v.      5 c.c.c.c.r.r.@.            0.c.c.c.{ % c.c.c.L             c.c.c.c.{ a.c.c.c.R       v.v.v.v.v.v.v.v.v.",
"v.v.v.v.v.v.v.v.v.      5 c.c.c.l.                  0.c.c.c.r.= c.c.c.L             c.c.c.c.> %.c.c.c.^       v.v.v.v.v.v.v.v.v.",
"v.v.v.v.v.v.v.v.v.      5 c.c.c.l.                  0.c.c.c.c.j c.c.c.L             c.c.c.c.2 +.c.c.c.)       v.v.v.v.v.v.v.v.v.",
"v.v.v.v.v.v.v.v.v.      5 c.c.c.l.q q %             0.c.c.c.c.X.c.c.c.L             c.c.c.c.> +.c.c.c.{       v.v.v.v.v.v.v.v.v.",
"v.v.v.v.v.v.v.v.v.      5 c.c.c.c.c.c.|             0.c.c.c.c.p.c.c.c.L           + c.c.c.c.> +.c.c.c.{       v.v.v.v.v.v.v.v.v.",
"v.v.v.v.v.v.v.v.v.      5 c.c.c.c.c.c.|             0.c.c.c.c.c.c.c.c.L             c.c.c.c.> +.c.c.c.{       v.v.v.v.v.v.v.v.v.",
"v.v.v.v.v.v.v.v.v.      5 c.c.c.c.u.u.(             0.c.c.d.c.c.c.c.c.L             c.c.c.c.> +.c.c.c.{       v.v.v.v.v.v.v.v.v.",
"v.v.v.v.v.v.v.v.v.      5 c.c.c.l.                  0.c.c.=.l.c.c.c.c.L             c.c.c.c.2 +.c.c.c.{       v.v.v.v.v.v.v.v.v.",
"v.v.v.v.v.v.v.v.v.      5 c.c.c.l.                  0.c.c.@.1.c.c.c.c.L             c.c.c.c.> @.c.c.c.{       v.v.v.v.v.v.v.v.v.",
"v.v.v.v.v.v.v.v.v.      5 c.c.c.l.                  0.c.c.@.! c.c.c.c.L             c.c.c.c.> >.c.c.c.^       v.v.v.v.v.v.v.v.v.",
"v.v.v.v.v.v.v.v.v.      5 c.c.c.c.=.=.%.            0.c.c.@.2 c.c.c.c.L           + c.c.c.c.! p.c.c.c.R       v.v.v.v.v.v.v.v.v.",
"v.v.v.v.v.v.v.v.v.      5 c.c.c.c.c.c.l.            0.c.c.@.  q.c.c.c.L             c.c.c.c.c.c.c.c.c.m       v.v.v.v.v.v.v.v.v.",
"v.v.v.v.v.v.v.v.v.      5 c.c.c.c.c.c.l.            0.c.c.@.  | c.c.c.L             c.c.c.c.c.c.c.c.3.        v.v.v.v.v.v.v.v.v.",
"v.v.v.v.v.v.v.v.v.      % ' ' ' ' ) ' )             Q ) ' V   q ' ' ' w             ) ' ) ' ' ( Q c           v.v.v.v.v.v.v.v.v.",
"v.v.v.v.v.v.v.v.v.                                                                                            v.v.v.v.v.v.v.v.v.",
"v.v.v.v.v.v.v.v.v.v.                                                                                          v.v.v.v.v.v.v.v.v.",
"v.v.v.v.v.v.v.v.v.v.v.v.v.v.v.v.v.v.v.v.v.v.v.v.v.v.v.v.v.v.v.v.v.v.v.v.v.v.v.v.v.v.v.v.v.v.v.v.v.v.v.v.v.v.v.v.v.v.v.v.v.v.v.v.",
"v.v.v.v.v.v.v.v.v.v.v.v.v.v.v.v.v.v.v.v.v.v.v.v.v.v.v.v.v.v.v.v.v.v.v.v.v.v.v.v.v.v.v.v.v.v.v.v.v.v.v.v.v.v.v.v.v.v.v.v.v.v.v.v.",
"v.v.v.v.v.v.v.v.v.v.v.v.v.v.v.v.v.v.v.v.v.v.v.v.v.v.v.v.v.v.v.v.v.v.v.v.v.v.v.v.v.v.v.v.v.v.v.v.v.v.v.v.v.v.v.v.v.v.v.v.v.v.v.v.",
"v.v.v.v.v.v.                                                                                                        v.v.v.v.v.v.",
"v.v.v.v.v.v.v.      > 2 5 5 5 5 q q w w u u u u s s s f f j j j c c v v m m m V V V Z H H J J J L L Y Y R R =     v.v.v.v.v.v.v.",
"v.v.v.v.v.v.v.v.    j a.c.c.c.c.c.c.c.c.c.c.c.c.c.c.c.c.c.c.c.c.c.c.c.c.c.c.c.c.c.c.c.c.c.c.c.c.c.c.c.c.l.Y     v.v.v.v.v.v.v.v.",
"v.v.v.v.v.v.v.v.v.    > 8.c.c.c.c.c.c.c.c.c.c.c.c.c.c.c.c.c.c.c.c.c.c.c.c.c.c.c.c.c.c.c.c.c.c.c.c.c.c.f.v     v.v.v.v.v.v.v.v.v.",
"v.v.v.v.v.v.v.v.v.v.    $ =.c.c.c.c.c.c.c.c.c.c.c.c.c.c.c.c.c.c.c.c.c.c.c.c.c.c.c.c.c.c.c.c.c.c.c.c.u.w     v.v.v.v.v.v.v.v.v.v.",
"v.v.v.v.v.v.v.v.v.v.v.v.    ) c.c.c.c.c.c.c.c.c.c.c.c.c.c.c.c.c.c.c.c.c.c.c.c.c.c.c.c.c.c.c.c.c.c.8.:     v.v.v.v.v.v.v.v.v.v.v.",
"v.v.v.v.v.v.v.v.v.v.v.v.v.    Z f.c.c.c.c.c.c.c.c.c.c.c.c.c.c.c.c.c.c.c.c.c.c.c.c.c.c.c.c.c.c.c.,.$   v.v.v.v.v.v.v.v.v.v.v.v.v.",
"v.v.v.v.v.v.v.v.v.v.v.v.v.v.    w u.c.c.c.c.c.c.c.c.c.c.c.c.c.c.c.c.c.c.c.c.c.c.c.c.c.c.c.c.c.+.    v.v.v.v.v.v.v.v.v.v.v.v.v.v.",
"v.v.v.v.v.v.v.v.v.v.v.v.v.v.v.    = 5.c.c.c.c.c.c.c.c.c.c.c.c.c.c.c.c.c.c.c.c.c.c.c.c.c.c.c.^     v.v.v.v.v.v.v.v.v.v.v.v.v.v.v.",
"v.v.v.v.v.v.v.v.v.v.v.v.v.v.v.v.v.    +.c.c.c.c.c.c.c.c.c.c.c.c.c.c.c.c.c.c.c.c.c.c.c.c.h.H     v.v.v.v.v.v.v.v.v.v.v.v.v.v.v.v.",
"v.v.v.v.v.v.v.v.v.v.v.v.v.v.v.v.v.v.    Q l.c.c.c.c.c.c.c.c.c.c.c.c.c.c.c.c.c.c.c.c.c.d.f     v.v.v.v.v.v.v.v.v.v.v.v.v.v.v.v.v.",
"v.v.v.v.v.v.v.v.v.v.v.v.v.v.v.v.v.v.v.    j d.c.c.c.c.c.c.c.c.c.c.c.c.c.c.c.c.c.c.c.r.2     v.v.v.v.v.v.v.v.v.v.v.v.v.v.v.v.v.v.",
"v.v.v.v.v.v.v.v.v.v.v.v.v.v.v.v.v.v.v.v.    > 0.c.c.c.c.c.c.c.c.c.c.c.c.c.c.c.c.c.5.%     v.v.v.v.v.v.v.v.v.v.v.v.v.v.v.v.v.v.v.",
"v.v.v.v.v.v.v.v.v.v.v.v.v.v.v.v.v.v.v.v.v.    $ =.c.c.c.c.c.c.c.c.c.c.c.c.c.c.c.*.+   v.v.v.v.v.v.v.v.v.v.v.v.v.v.v.v.v.v.v.v.v.",
"v.v.v.v.v.v.v.v.v.v.v.v.v.v.v.v.v.v.v.v.v.v.v.    ) c.c.c.c.c.c.c.c.c.c.c.c.c.{     v.v.v.v.v.v.v.v.v.v.v.v.v.v.v.v.v.v.v.v.v.v.",
"v.v.v.v.v.v.v.v.v.v.v.v.v.v.v.v.v.v.v.v.v.v.v.v.    Z h.c.c.c.c.c.c.c.c.c.l.Y     v.v.v.v.v.v.v.v.v.v.v.v.v.v.v.v.v.v.v.v.v.v.v.",
"v.v.v.v.v.v.v.v.v.v.v.v.v.v.v.v.v.v.v.v.v.v.v.v.v.    w y.c.c.c.c.c.c.c.f.c     v.v.v.v.v.v.v.v.v.v.v.v.v.v.v.v.v.v.v.v.v.v.v.v.",
"v.v.v.v.v.v.v.v.v.v.v.v.v.v.v.v.v.v.v.v.v.v.v.v.v.v.    % 1.c.c.c.c.c.y.q     v.v.v.v.v.v.v.v.v.v.v.v.v.v.v.v.v.v.v.v.v.v.v.v.v.",
"v.v.v.v.v.v.v.v.v.v.v.v.v.v.v.v.v.v.v.v.v.v.v.v.v.v.v.v.    X.c.c.c.6.=     v.v.v.v.v.v.v.v.v.v.v.v.v.v.v.v.v.v.v.v.v.v.v.v.v.v.",
"v.v.v.v.v.v.v.v.v.v.v.v.v.v.v.v.v.v.v.v.v.v.v.v.v.v.v.v.v.    Y l.>.$     v.v.v.v.v.v.v.v.v.v.v.v.v.v.v.v.v.v.v.v.v.v.v.v.v.v.v.",
"v.v.v.v.v.v.v.v.v.v.v.v.v.v.v.v.v.v.v.v.v.v.v.v.v.v.v.v.v.v.    5     v.v.v.v.v.v.v.v.v.v.v.v.v.v.v.v.v.v.v.v.v.v.v.v.v.v.v.v.v.",
"v.v.v.v.v.v.                                                                                                        v.v.v.v.v.v.",
"v.v.v.v.v.v.    s j c j c j j c c j c j j c j c c j c j j j c j c j c j c j c j c j c j c j c j j j c c c j c j $   v.v.v.v.v.v.",
"v.v.v.v.v.v.    8.c.c.c.c.c.c.c.c.c.c.c.c.c.c.c.c.c.c.c.c.c.c.c.c.c.c.c.c.c.c.c.c.c.c.c.c.c.c.c.c.c.c.c.c.c.c.c.w   v.v.v.v.v.v.",
"v.v.v.v.v.v.    8.c.c.c.c.c.c.c.c.c.c.c.c.c.c.c.c.c.c.c.c.c.c.c.c.c.c.c.c.c.c.c.c.c.c.c.c.c.c.c.c.c.c.c.c.c.c.c.u   v.v.v.v.v.v.",
"v.v.v.v.v.v.    8.c.c.c.c.c.c.c.c.c.c.c.c.c.c.c.c.c.c.c.c.c.c.c.c.c.c.c.c.c.c.c.c.c.c.c.c.c.c.c.c.c.c.c.c.c.c.c.u   v.v.v.v.v.v.",
"v.v.v.v.v.v.    8.c.c.c.c.c.c.c.c.c.c.c.c.c.c.c.c.c.c.c.c.c.c.c.c.c.c.c.c.c.c.c.c.c.c.c.c.c.c.c.c.c.c.c.c.c.c.c.w   v.v.v.v.v.v.",
"v.v.v.v.v.v.    ' @.%.@.%.@.%.@.@.%.@.%.@.%.@.%.%.@.%.@.%.@.%.@.@.%.@.%.@.%.@.%.@.%.@.%.@.%.@.%.%.@.@.%.@.%.@.%.>   v.v.v.v.v.v.",
"v.v.v.v.v.v.                                                                                                        v.v.v.v.v.v.",
"v.v.v.v.v.v.v.v.v.v.v.v.v.v.v.v.v.v.v.v.v.v.v.v.v.v.v.v.v.v.v.v.v.v.v.v.v.v.v.v.v.v.v.v.v.v.v.v.v.v.v.v.v.v.v.v.v.v.v.v.v.v.v.v.",
"v.v.v.v.v.v.v.v.v.v.v.v.v.v.v.v.v.v.v.v.v.v.v.v.v.v.v.v.v.v.v.v.v.v.v.v.v.v.v.v.v.v.v.v.v.v.v.v.v.v.v.v.v.v.v.v.v.v.v.v.v.v.v.v.",
"v.v.v.v.v.v.v.v.v.v.v.v.v.v.v.v.v.v.v.v.v.v.v.v.v.v.v.v.v.v.v.v.v.v.v.v.v.v.v.v.v.v.v.v.v.v.v.v.v.v.v.v.v.v.v.v.v.v.v.v.v.v.v.v.",
"v.v.v.v.v.v.v.v.v.v.v.v.v.v.v.v.v.v.v.v.v.v.v.v.v.v.v.v.v.v.v.v.v.v.v.v.v.v.v.v.v.v.v.v.v.v.v.v.v.v.v.v.v.v.v.v.v.v.v.v.v.v.v.v.",
"v.v.v.v.v.v.v.v.v.v.v.v.v.v.v.v.v.v.v.v.v.v.v.v.v.v.v.v.v.v.v.v.v.v.v.v.v.v.v.v.v.v.v.v.v.v.v.v.v.v.v.v.v.v.v.v.v.v.v.v.v.v.v.v.",
"v.v.v.v.v.v.v.v.v.v.v.v.v.v.v.v.v.v.v.v.v.v.v.v.v.v.v.v.v.v.v.v.v.v.v.v.v.v.v.v.v.v.v.v.v.v.v.v.v.v.v.v.v.v.v.v.v.v.v.v.v.v.v.v."
};
