/* XPM */
static char *enter[] = {
/* columns rows colors chars-per-pixel */
"64 64 126 2 ",
"   c black",
".  c #010101",
"X  c #020202",
"o  c gray1",
"O  c #040404",
"+  c gray2",
"@  c #070707",
"#  c gray3",
"$  c #090909",
"%  c gray4",
"&  c #0B0B0B",
"*  c #0C0C0C",
"=  c gray5",
"-  c #0E0E0E",
";  c gray6",
":  c #101010",
">  c #111111",
",  c #131313",
"<  c gray8",
"1  c #161616",
"2  c gray9",
"3  c #1B1B1B",
"4  c gray11",
"5  c gray12",
"6  c #202020",
"7  c gray14",
"8  c gray17",
"9  c #2D2D2D",
"0  c gray19",
"q  c #3A3A3A",
"w  c #3C3C3C",
"e  c #3F3F3F",
"r  c #414141",
"t  c gray26",
"y  c gray28",
"u  c #484848",
"i  c #4C4C4C",
"p  c gray30",
"a  c #515151",
"s  c gray34",
"d  c #585858",
"f  c #5A5A5A",
"g  c #5F5F5F",
"h  c #606060",
"j  c gray38",
"k  c gray39",
"l  c #646464",
"z  c #656565",
"x  c gray40",
"c  c #686868",
"v  c DimGray",
"b  c #6A6A6A",
"n  c gray42",
"m  c #6D6D6D",
"M  c #6F6F6F",
"N  c #717171",
"B  c #727272",
"V  c gray45",
"C  c #747474",
"Z  c #7B7B7B",
"A  c #7E7E7E",
"S  c #808080",
"D  c #818181",
"F  c #848484",
"G  c gray52",
"H  c gray53",
"J  c #8B8B8B",
"K  c gray55",
"L  c gray56",
"P  c gray57",
"I  c gray59",
"U  c #979797",
"Y  c #989898",
"T  c gray60",
"R  c #9B9B9B",
"E  c gray61",
"W  c gray62",
"Q  c #9F9F9F",
"!  c #A0A0A0",
"~  c #A2A2A2",
"^  c gray64",
"/  c #A5A5A5",
"(  c gray66",
")  c #A9A9A9",
"_  c #AAAAAA",
"`  c gray67",
"'  c #ACACAC",
"]  c #AFAFAF",
"[  c gray69",
"{  c #B1B1B1",
"}  c #B2B2B2",
"|  c #B7B7B7",
" . c gray72",
".. c #B9B9B9",
"X. c #BCBCBC",
"o. c gray",
"O. c gray75",
"+. c #C0C0C0",
"@. c #C1C1C1",
"#. c #C3C3C3",
"$. c #C6C6C6",
"%. c #CACACA",
"&. c #CBCBCB",
"*. c gray81",
"=. c #D0D0D0",
"-. c LightGray",
";. c gray83",
":. c #D5D5D5",
">. c #D8D8D8",
",. c gray86",
"<. c #E2E2E2",
"1. c gray90",
"2. c #EFEFEF",
"3. c gray95",
"4. c #F3F3F3",
"5. c #F4F4F4",
"6. c gray96",
"7. c #F6F6F6",
"8. c #F8F8F8",
"9. c #F9F9F9",
"0. c gray98",
"q. c #FBFBFB",
"w. c #FDFDFD",
"e. c #FEFEFE",
"r. c white",
"t. c None",
/* pixels */
"t.t.t.t.t.t.t.t.t.t.t.t.t.t.t.t.t.t.t.t.t.t.t.t.t.t.t.t.t.t.t.t.t.t.t.t.t.t.t.t.t.t.t.t.t.t.t.t.t.t.t.t.t.t.t.t.t.t.t.t.t.t.t.t.",
"t.t.t.t.t.t.t.t.t.t.t.t.t.t.t.t.t.t.t.t.t.t.t.t.t.t.t.t.t.t.t.t.t.t.t.t.t.t.t.t.t.t.t.t.t.t.t.t.t.t.t.t.t.t.t.t.t.t.t.t.t.t.t.t.",
"t.t.t.t.t.t.t.t.t.t.t.t.t.t.t.t.t.t.t.t.t.t.t.t.t.t.t.t.t.t.t.t.t.t.t.t.t.t.t.t.t.t.t.t.t.t.t.t.t.t.t.t.t.t.t.t.t.t.t.t.t.t.t.t.",
"t.t.t.t.t.t.t.t.t.t.t.t.t.t.t.t.t.t.t.t.t.t.t.t.t.t.t.t.t.t.t.t.t.t.t.t.t.t.t.t.t.t.t.t.t.t.t.t.t.t.t.t.t.t.t.t.t.t.t.t.t.t.t.t.",
"t.t.t.t.t.t.t.t.t.t.t.t.t.t.t.t.t.t.t.t.t.t.t.t.t.t.t.t.t.t.t.t.t.t.t.t.t.t.t.t.t.t.t.t.t.t.t.t.t.t.t.t.t.t.t.t.t.t.t.t.t.t.t.t.",
"t.t.t.t.t.t.t.t.t.t.t.t.t.t.t.t.t.t.t.t.t.t.t.t.t.t.t.t.t.t.t.t.t.t.t.t.t.t.t.t.t.t.t.t.t.t.t.t.t.t.t.t.t.t.t.t.t.t.t.t.t.t.t.t.",
"t.t.t.t.t.t.t.t.t.t.t.t.t.t.t.t.t.t.t.t.t.t.t.t.t.t.t.t.t.t.t.t.t.t.t.t.t.t.t.t.t.t.t.t.t.t.t.t.t.t.t.t.t.t.t.t.t.t.t.t.t.t.t.t.",
"t.t.t.t.t.t.t.t.t.t.t.t.t.t.t.t.t.t.t.t.t.t.t.t.t.t.t.t.t.t.t.t.t.t.t.t.t.t.t.t.t.t.t.t.t.t.t.t.t.t.t.t.t.t.t.t.t.t.t.t.t.t.t.t.",
"t.t.t.t.t.t.t.t.t.t.t.t.t.t.t.t.t.t.t.t.t.t.t.t.t.t.t.t.t.t.t.t.t.t.t.t.t.t.t.t.t.t.t.t.t.t.t.t.t.t.t.t.t.t.t.t.t.t.t.t.t.t.t.t.",
"t.t.t.t.t.t.t.t.t.t.t.t.t.t.t.t.t.t.t.t.t.t.t.t.t.t.t.t.t.t.t.t.t.t.t.t.t.t.t.t.t.t.t.t.t.t.t.t.t.t.t.t.t.t.t.t.t.t.t.t.t.t.t.t.",
"t.t.                                                                                                    t.t.t.t.t.t.t.t.t.t.t.t.",
"t.t.                                                                                                    t.t.t.t.t.t.t.t.t.t.t.t.",
"t.t.      ; : : : : $     $ : : O   ; : ;     ; : : : : : : $     : : : : : O     ; : ;                 t.t.t.t.t.t.t.t.t.t.t.t.",
"t.t.      5.r.r.r.r.R     U r.r.j   2.r.;.    $.r.r.r.r.r.r.S   3 r.r.r.r.r.C     X.r.r.r.5.<.j         t.t.t.t.t.t.t.t.t.t.t.t.",
"t.t.      5.r.r.r.r.R     U r.r.{   2.r.>.    +.r.r.r.r.r.r.H   3 r.r.r.r.r.C     +.r.r.r.r.r.r.r       t.t.t.t.t.t.t.t.t.t.t.t.",
"t.t.      5.r.r.{ S p     U r.r.5.; 2.r.>.    j S 1.r.r.$.A r   3 r.r.r.W S q     X.r.r.` ` r.r.Z       t.t.t.t.t.t.t.t.t.t.t.t.",
"t.t.      5.r.r.j         U r.r.r.d 2.r.>.        &.r.r.K       3 r.r.r.e         X.r.r.R z r.r.~       t.t.t.t.t.t.t.t.t.t.t.t.",
"t.t.      5.r.r.m : $     U r.r.r.` 2.r.>.        &.r.r.K       3 r.r.r.y : O     X.r.r.W U r.r.A       t.t.t.t.t.t.t.t.t.t.t.t.",
"t.t.      5.r.r.r.r.N     U r.r.r.5.5.r.>.        &.r.r.K       3 r.r.r.r.r.p     +.r.r.r.r.r.%.9       t.t.t.t.t.t.t.t.t.t.t.t.",
"t.t.      5.r.r.r.r.C     U r.r.r.r.r.r.>.        %.r.r.K       3 r.r.r.r.r.p     X.r.r.r.r.r.W 2       t.t.t.t.t.t.t.t.t.t.t.t.",
"t.t.      5.r.r.W j 8     U r.r.;.r.r.r.>.        &.r.r.K       3 r.r.r.S j 4     X.r.r.R U r.r.P       t.t.t.t.t.t.t.t.t.t.t.t.",
"t.t.      5.r.r.j         U r.r.H r.r.r.>.        &.r.r.K       3 r.r.r.e         +.r.r.R b r.r.`       t.t.t.t.t.t.t.t.t.t.t.t.",
"t.t.      5.r.r.j         U r.r.e 0.r.r.>.        &.r.r.K       3 r.r.r.e         X.r.r.R z r.r.'       t.t.t.t.t.t.t.t.t.t.t.t.",
"t.t.      5.r.r.<.-.'     U r.r.0 X.r.r.>.        %.r.r.K       3 r.r.r.>.-.K     X.r.r.R z r.r.{       t.t.t.t.t.t.t.t.t.t.t.t.",
"t.t.      5.r.r.r.r.-.    U r.r.0 m r.r.>.        %.r.r.K       3 r.r.r.r.r.'     +.r.r.R z r.r.{       t.t.t.                t.",
"t.t.      | +.+.+.+.W     N +.+.7 6 +.+.~         R +.X.b       2 X.+.+.+.+.S     K +.+.N p +.+.H       t.t.                  t.",
"t.t.                                                                                                    t.t.    W -.&.&.-.:   t.",
"t.t.                                                                                                    t.t.    X.r.r.r.r.3   t.",
"t.t.                                                                                                  t.t.t.    X.r.r.r.r.2   t.",
"t.t.t.t.t.t.t.t.t.t.t.t.t.t.t.t.t.t.t.t.t.t.t.t.t.t.t.t.t.t.t.t.t.t.t.t.t.t.t.t.t.t.t.t.t.t.t.t.t.t.t.t.t.t.    +.r.r.r.r.2   t.",
"t.t.t.t.t.t.t.t.t.t.t.t.t.t.t.t.t.t.t.t.t.t.t.t.t.t.t.t.t.t.t.t.t.t.t.t.t.t.t.t.t.t.t.t.t.t.t.t.t.t.t.t.t.t.    +.r.r.r.r.2   t.",
"t.t.t.t.t.t.t.t.t.t.t.t.t.t.    t.t.t.t.t.t.t.t.t.t.t.t.t.t.t.t.t.t.t.t.t.t.t.t.t.t.t.t.t.t.t.t.t.t.t.t.t.t.    X.r.r.r.r.2   t.",
"t.t.t.t.t.t.t.t.t.t.t.t.t.t.    t.t.t.t.t.t.t.t.t.t.t.t.t.t.t.t.t.t.t.t.t.t.t.t.t.t.t.t.t.t.t.t.t.t.t.t.t.t.    X.r.r.r.r.2   t.",
"t.t.t.t.t.t.t.t.t.t.t.t.t.      t.t.t.t.t.t.t.t.t.t.t.t.t.t.t.t.t.t.t.t.t.t.t.t.t.t.t.t.t.t.t.t.t.t.t.t.t.t.    X.r.r.r.r.2   t.",
"t.t.t.t.t.t.t.t.t.t.t.t.  $     t.t.t.t.t.t.t.t.t.t.t.t.t.t.t.t.t.t.t.t.t.t.t.t.t.t.t.t.t.t.t.t.t.t.t.t.t.t.    +.r.r.r.r.2   t.",
"t.t.t.t.t.t.t.t.t.t.t.  ; ..    t.t.t.t.t.t.t.t.t.t.t.t.t.t.t.t.t.t.t.t.t.t.t.t.t.t.t.t.t.t.t.t.t.t.t.t.t.t.    +.r.r.r.r.2   t.",
"t.t.t.t.t.t.t.t.t.t.  $ +.3.    t.t.t.t.t.t.t.t.t.t.t.t.t.t.t.t.t.t.t.t.t.t.t.t.t.t.t.t.t.t.t.t.t.t.t.t.t.t.    X.r.r.r.r.2   t.",
"t.t.t.t.t.t.t.t.t.  O ..r.2.    t.t.t.t.t.t.t.t.t.t.t.t.t.t.t.t.t.t.t.t.t.t.t.t.t.t.t.t.t.t.t.t.t.t.t.t.t.t.    +.r.r.r.r.2   t.",
"t.t.t.t.t.t.t.t.    { r.r.2.                                                                                    +.r.r.r.r.2   t.",
"t.t.t.t.t.t.t.  O / r.r.r.5.s s s s s s s s s s s s s s s s s s s s s s s s s d s s s s s s s s s s s s s s s s ;.r.r.r.r.2   t.",
"t.t.t.t.t.t.    R r.r.r.r.r.r.r.r.r.r.r.r.r.r.r.r.r.r.r.r.r.r.r.r.r.r.r.r.r.r.r.r.r.r.r.r.r.r.r.r.r.r.r.r.r.r.r.r.r.r.r.r.2   t.",
"t.t.t.t.t.    U r.r.r.r.r.r.r.r.r.r.r.r.r.r.r.r.r.r.r.r.r.r.r.r.r.r.r.r.r.r.r.r.r.r.r.r.r.r.r.r.r.r.r.r.r.r.r.r.r.r.r.r.r.2   t.",
"t.t.t.t.    4 3.r.r.r.r.r.r.r.r.r.r.r.r.r.r.r.r.r.r.r.r.r.r.r.r.r.r.r.r.r.r.r.r.r.r.r.r.r.r.r.r.r.r.r.r.r.r.r.r.r.r.r.r.r.2   t.",
"t.t.t.t.t.    r 5.r.r.r.r.r.r.r.r.r.r.r.r.r.r.r.r.r.r.r.r.r.r.r.r.r.r.r.r.r.r.r.r.r.r.r.r.r.r.r.r.r.r.r.r.r.r.r.r.r.r.r.r.2   t.",
"t.t.t.t.t.t.    u 0.r.r.r.0.+.X.+.+.+.X.X.+.+.+.X.+.+.+.+.+.+.X.X.+.+.+.X.+.+.+.X.+.+.+.X.+.+.+.X.+.+.+.X.+.+.+.+.+.+.+.X.:   t.",
"t.t.t.t.t.t.t.    a 0.r.r.3.                                                                                                  t.",
"t.t.t.t.t.t.t.t.    d r.r.2.                                                                                                t.t.",
"t.t.t.t.t.t.t.t.t.    j r.2.    t.t.t.t.t.t.t.t.t.t.t.t.t.t.t.t.t.t.t.t.t.t.t.t.t.t.t.t.t.t.t.t.t.t.t.t.t.t.t.t.t.t.t.t.t.t.t.t.",
"t.t.t.t.t.t.t.t.t.t.    N 2.    t.t.t.t.t.t.t.t.t.t.t.t.t.t.t.t.t.t.t.t.t.t.t.t.t.t.t.t.t.t.t.t.t.t.t.t.t.t.t.t.t.t.t.t.t.t.t.t.",
"t.t.t.t.t.t.t.t.t.t.t.    b     t.t.t.t.t.t.t.t.t.t.t.t.t.t.t.t.t.t.t.t.t.t.t.t.t.t.t.t.t.t.t.t.t.t.t.t.t.t.t.t.t.t.t.t.t.t.t.t.",
"t.t.t.t.t.t.t.t.t.t.t.t.        t.t.t.t.t.t.t.t.t.t.t.t.t.t.t.t.t.t.t.t.t.t.t.t.t.t.t.t.t.t.t.t.t.t.t.t.t.t.t.t.t.t.t.t.t.t.t.t.",
"t.t.t.t.t.t.t.t.t.t.t.t.t.      t.t.t.t.t.t.t.t.t.t.t.t.t.t.t.t.t.t.t.t.t.t.t.t.t.t.t.t.t.t.t.t.t.t.t.t.t.t.t.t.t.t.t.t.t.t.t.t.",
"t.t.t.t.t.t.t.t.t.t.t.t.t.t.    t.t.t.t.t.t.t.t.t.t.t.t.t.t.t.t.t.t.t.t.t.t.t.t.t.t.t.t.t.t.t.t.t.t.t.t.t.t.t.t.t.t.t.t.t.t.t.t.",
"t.t.t.t.t.t.t.t.t.t.t.t.t.t.t.  t.t.t.t.t.t.t.t.t.t.t.t.t.t.t.t.t.t.t.t.t.t.t.t.t.t.t.t.t.t.t.t.t.t.t.t.t.t.t.t.t.t.t.t.t.t.t.t.",
"t.t.t.t.t.t.t.t.t.t.t.t.t.t.t.t.t.t.t.t.t.t.t.t.t.t.t.t.t.t.t.t.t.t.t.t.t.t.t.t.t.t.t.t.t.t.t.t.t.t.t.t.t.t.t.t.t.t.t.t.t.t.t.t.",
"t.t.t.t.t.t.t.t.t.t.t.t.t.t.t.t.t.t.t.t.t.t.t.t.t.t.t.t.t.t.t.t.t.t.t.t.t.t.t.t.t.t.t.t.t.t.t.t.t.t.t.t.t.t.t.t.t.t.t.t.t.t.t.t.",
"t.t.t.t.t.t.t.t.t.t.t.t.t.t.t.t.t.t.t.t.t.t.t.t.t.t.t.t.t.t.t.t.t.t.t.t.t.t.t.t.t.t.t.t.t.t.t.t.t.t.t.t.t.t.t.t.t.t.t.t.t.t.t.t.",
"t.t.t.t.t.t.t.t.t.t.t.t.t.t.t.t.t.t.t.t.t.t.t.t.t.t.t.t.t.t.t.t.t.t.t.t.t.t.t.t.t.t.t.t.t.t.t.t.t.t.t.t.t.t.t.t.t.t.t.t.t.t.t.t.",
"t.t.t.t.t.t.t.t.t.t.t.t.t.t.t.t.t.t.t.t.t.t.t.t.t.t.t.t.t.t.t.t.t.t.t.t.t.t.t.t.t.t.t.t.t.t.t.t.t.t.t.t.t.t.t.t.t.t.t.t.t.t.t.t.",
"t.t.t.t.t.t.t.t.t.t.t.t.t.t.t.t.t.t.t.t.t.t.t.t.t.t.t.t.t.t.t.t.t.t.t.t.t.t.t.t.t.t.t.t.t.t.t.t.t.t.t.t.t.t.t.t.t.t.t.t.t.t.t.t.",
"t.t.t.t.t.t.t.t.t.t.t.t.t.t.t.t.t.t.t.t.t.t.t.t.t.t.t.t.t.t.t.t.t.t.t.t.t.t.t.t.t.t.t.t.t.t.t.t.t.t.t.t.t.t.t.t.t.t.t.t.t.t.t.t.",
"t.t.t.t.t.t.t.t.t.t.t.t.t.t.t.t.t.t.t.t.t.t.t.t.t.t.t.t.t.t.t.t.t.t.t.t.t.t.t.t.t.t.t.t.t.t.t.t.t.t.t.t.t.t.t.t.t.t.t.t.t.t.t.t.",
"t.t.t.t.t.t.t.t.t.t.t.t.t.t.t.t.t.t.t.t.t.t.t.t.t.t.t.t.t.t.t.t.t.t.t.t.t.t.t.t.t.t.t.t.t.t.t.t.t.t.t.t.t.t.t.t.t.t.t.t.t.t.t.t.",
"t.t.t.t.t.t.t.t.t.t.t.t.t.t.t.t.t.t.t.t.t.t.t.t.t.t.t.t.t.t.t.t.t.t.t.t.t.t.t.t.t.t.t.t.t.t.t.t.t.t.t.t.t.t.t.t.t.t.t.t.t.t.t.t."
};
