/* XPM */
static char *exit[] = {
/* columns rows colors chars-per-pixel */
"64 64 126 2 ",
"   c black",
".  c #010101",
"X  c #020202",
"o  c gray1",
"O  c gray2",
"+  c gray3",
"@  c gray4",
"#  c #0B0B0B",
"$  c #0C0C0C",
"%  c #0E0E0E",
"&  c gray6",
"*  c #101010",
"=  c gray8",
"-  c #161616",
";  c gray9",
":  c #191919",
">  c gray10",
",  c gray11",
"<  c #1E1E1E",
"1  c gray12",
"2  c #222222",
"3  c #232323",
"4  c #252525",
"5  c gray15",
"6  c #272727",
"7  c #282828",
"8  c gray16",
"9  c #2C2C2C",
"0  c gray18",
"q  c gray19",
"w  c #323232",
"e  c gray20",
"r  c #353535",
"t  c #3A3A3A",
"y  c gray24",
"u  c #3E3E3E",
"i  c gray26",
"p  c gray27",
"a  c #494949",
"s  c #4B4B4B",
"d  c #4C4C4C",
"f  c #4E4E4E",
"g  c gray31",
"h  c #515151",
"j  c gray33",
"k  c gray34",
"l  c #585858",
"z  c #5A5A5A",
"x  c #5D5D5D",
"c  c #626262",
"v  c #656565",
"b  c gray40",
"n  c #676767",
"m  c #686868",
"M  c #6A6A6A",
"N  c #6C6C6C",
"B  c #6D6D6D",
"V  c gray43",
"C  c #727272",
"Z  c gray46",
"A  c #767676",
"S  c gray47",
"D  c gray49",
"F  c #838383",
"G  c #848484",
"H  c gray52",
"J  c gray53",
"K  c #888888",
"L  c gray54",
"P  c #8B8B8B",
"I  c gray55",
"U  c gray56",
"Y  c #909090",
"T  c #939393",
"R  c gray58",
"E  c #979797",
"W  c gray60",
"Q  c #9A9A9A",
"!  c #9D9D9D",
"~  c gray63",
"^  c #A4A4A4",
"/  c gray65",
"(  c #A7A7A7",
")  c gray67",
"_  c #AEAEAE",
"`  c #AFAFAF",
"'  c gray70",
"]  c #B7B7B7",
"[  c gray73",
"{  c gray",
"}  c gray75",
"|  c #C0C0C0",
" . c gray76",
".. c #C3C3C3",
"X. c gray78",
"o. c #C8C8C8",
"O. c gray79",
"+. c #CBCBCB",
"@. c gray80",
"#. c #D0D0D0",
"$. c gray85",
"%. c #DADADA",
"&. c #DDDDDD",
"*. c #E2E2E2",
"=. c #E7E7E7",
"-. c gray91",
";. c #E9E9E9",
":. c #EAEAEA",
">. c #ECECEC",
",. c gray93",
"<. c #EFEFEF",
"1. c gray94",
"2. c #F1F1F1",
"3. c gray95",
"4. c #F4F4F4",
"5. c gray96",
"6. c #F6F6F6",
"7. c gray97",
"8. c #F8F8F8",
"9. c gray98",
"0. c #FBFBFB",
"q. c gray99",
"w. c #FDFDFD",
"e. c #FEFEFE",
"r. c white",
"t. c None",
/* pixels */
"t.t.t.t.t.t.t.t.t.t.t.t.t.t.t.t.t.t.t.t.t.t.t.t.t.t.t.t.t.t.t.t.t.t.t.t.t.t.t.t.t.t.t.t.t.t.t.t.t.t.t.t.t.t.t.t.t.t.t.t.t.t.t.t.",
"t.t.t.t.t.t.t.t.t.t.t.t.t.t.t.t.t.t.t.t.t.t.t.t.t.t.t.t.t.t.t.t.t.t.t.t.t.t.t.t.t.t.t.t.t.t.t.t.t.t.t.t.t.t.t.t.t.t.t.t.t.t.t.t.",
"t.t.t.t.t.t.t.t.t.t.t.t.t.t.t.t.t.t.t.t.t.t.t.t.t.t.t.t.t.t.t.t.t.t.t.t.t.t.t.t.t.t.t.t.t.t.t.t.t.t.t.t.t.t.t.t.t.t.t.t.t.t.t.t.",
"t.t.t.t.t.t.t.t.t.t.t.t.t.t.t.t.t.t.t.t.t.t.t.t.t.t.t.t.t.t.t.t.t.t.t.t.t.t.t.t.t.t.t.t.t.t.t.t.t.t.t.t.t.t.t.t.t.t.t.t.t.t.t.t.",
"t.t.t.t.t.t.t.t.t.t.t.t.t.t.t.t.t.t.t.t.t.t.t.t.t.t.t.t.t.t.t.t.t.t.t.t.t.t.t.t.t.t.t.t.t.t.t.t.t.t.t.t.t.t.t.t.t.t.t.t.t.t.t.t.",
"t.t.t.t.t.t.t.t.t.t.t.t.t.t.t.t.t.t.t.t.t.t.t.t.t.t.t.t.t.t.t.t.t.t.t.t.t.t.t.t.t.t.t.t.t.t.t.t.t.t.t.t.t.t.t.t.t.t.t.t.t.t.t.t.",
"t.t.t.t.t.t.t.t.t.t.t.t.t.t.t.t.t.t.t.t.t.t.t.t.t.t.t.t.t.t.t.t.t.t.t.t.t.t.t.t.t.t.t.t.t.t.t.t.t.t.t.t.t.t.t.t.t.t.t.t.t.t.t.t.",
"t.t.t.t.t.t.t.t.t.t.t.t.t.t.t.t.t.t.t.t.t.t.t.t.t.t.t.t.t.t.t.t.t.t.t.t.t.t.t.t.t.t.t.t.t.t.t.t.t.t.t.t.t.t.t.t.t.t.t.t.t.t.t.t.",
"t.t.t.t.t.t.t.t.t.t.t.t.t.t.t.t.t.t.t.t.t.t.t.t.t.t.t.t.t.t.t.t.t.t.t.t.t.t.t.t.t.t.t.t.t.t.t.t.t.t.t.t.t.t.t.t.t.t.t.t.t.t.t.t.",
"t.t.t.t.t.t.t.t.t.t.t.t.t.t.t.t.t.t.t.t.t.t.t.t.t.t.t.t.t.t.t.t.t.t.t.t.t.t.t.t.t.t.t.t.t.t.t.t.t.t.t.t.t.t.t.t.t.t.t.t.t.t.t.t.",
"t.t.t.t.t.t.t.t.t.t.t.t.t.t.t.t.t.t.t.t.t.t.t.t.t.t.t.t.t.t.t.t.t.t.t.t.t.t.t.t.t.t.t.t.t.t.t.t.t.t.t.t.t.t.t.t.t.t.t.t.t.t.t.t.",
"t.t.t.t.t.t.t.t.t.t.t.t.t.t.t.t.t.t.t.t.t.t.t.t.  t.t.t.t.t.t.t.t.t.t.t.t.t.t.t.t.t.t.t.t.t.t.t.t.t.t.t.t.t.t.t.t.t.t.t.t.t.t.t.",
"t.t.t.t.t.t.t.t.t.t.t.t.t.t.t.t.t.t.t.t.t.t.      t.t.t.t.t.t.t.t.t.t.t.t.t.t.t.t.t.t.t.t.t.t.t.t.t.t.t.t.t.t.t.t.t.t.t.t.t.t.t.",
"t.t.t.t.t.t.t.t.t.t.t.t.t.t.t.t.t.t.t.t.t.        t.t.t.t.t.t.t.t.t.t.t.t.t.t.t.t.t.t.t.t.t.t.t.t.t.t.t.t.t.t.t.t.t.t.t.t.t.t.t.",
"t.t.t.t.t.t.t.t.t.t.t.t.t.t.t.t.t.t.t.t.    -     t.t.t.t.t.t.t.t.t.t.t.t.t.t.t.t.t.t.t.t.t.t.t.t.t.t.t.t.t.t.t.t.t.t.t.t.t.t.t.",
"t.t.t.t.t.t.t.t.t.t.t.t.t.t.t.t.t.t.t.    6 @.    t.t.t.t.t.t.t.t.t.t.t.t.t.t.t.t.t.t.t.t.t.t.t.t.t.t.t.t.t.t.t.t.t.t.t.t.t.t.t.",
"t.t.t.t.t.t.t.t.t.t.t.t.t.t.t.t.t.t.    0 ;.=.    t.t.t.t.t.t.t.t.t.t.t.t.t.t.t.t.t.t.t.t.t.t.t.t.t.t.t.t.t.t.t.t.t.t.t.t.t.t.t.",
"t.t.t.t.t.t.t.t.t.t.t.t.t.t.t.t.t.    r ,.r.=.    t.t.t.t.t.t.t.t.t.t.t.t.t.t.t.t.t.t.t.t.t.t.t.t.t.t.t.t.t.t.t.t.t.t.t.t.t.t.t.",
"t.t.t.t.t.t.t.t.t.t.t.t.t.t.t.t.    u 2.r.r.=.    t.t.t.t.t.t.t.t.t.t.t.t.t.t.t.t.t.t.t.t.t.t.t.t.t.t.t.t.t.t.t.t.t.t.t.t.t.t.t.",
"t.t.t.t.t.t.t.t.t.t.t.t.t.t.t.    p 5.r.r.r.=.                                                                              t.t.",
"t.t.t.t.t.t.t.t.t.t.t.t.t.t.    f 8.r.r.r.r.=.                                                                                t.",
"t.t.t.t.t.t.t.t.t.t.t.t.t.    k 8.r.r.r.r.r.8._ ' _ _ _ _ _ ' _ ' _ _ _ ' _ _ _ ' _ _ _ ' _ _ _ ' _ _ _ _ ' ' _ _ _ ' _ _ *   t.",
"t.t.t.t.t.t.t.t.t.t.t.t.    c r.r.r.r.r.r.r.r.r.r.r.r.r.r.r.r.r.r.r.r.r.r.r.r.r.r.r.r.r.r.r.r.r.r.r.r.r.r.r.r.r.r.r.r.r.r.-   t.",
"t.t.t.t.t.t.t.t.t.t.t.    B r.r.r.r.r.r.r.r.r.L , , , , , , , , , , , , , , , , , , , , , , , , > , , , > , , , , , 3 2.r.-   t.",
"t.t.t.t.t.t.t.t.t.t.    S r.r.r.r.r.r.r.r.r.r.m                                                                     - 2.r.-   t.",
"t.t.t.t.t.t.t.t.t.    G r.r.r.r.r.r.r.r.r.r.r.m                                                                     - ,.r.-   t.",
"t.t.t.t.t.t.t.t.    Y r.r.r.r.r.r.r.r.r.r.r.r.m     | #.#.#.#.|   z #.#.X.  E #.#.w   B #.#.+.  8 #.#.#.#.#.#.#.B   - 2.r.-   t.",
"t.t.t.t.t.t.t.    Q r.r.r.r.r.r.r.r.r.r.r.r.r.m     ,.r.r.r.r.2.  u r.r.r.6 ;.r.r.$   L r.r.5.  w r.r.r.r.r.r.r.G   - ,.r.-   t.",
"t.t.t.t.t.t.  O / r.r.r.r.r.r.r.r.r.r.r.r.r.r.m     2.r.r.5.;.$.  $ 8.r.r.Z r.r.$.    G r.r.8.  0 ;.;.r.r.r.2.;.S   - 2.r.-   t.",
"t.t.t.t.t.  O _ r.r.r.r.r.r.r.r.r.r.r.r.r.r.r.m     ,.r.r.Y         #.r.r.$.r.r./     L r.r.8.      > r.r.r.B       - ,.r.-   t.",
"t.t.t.t.  + ] r.r.r.r.r.r.r.r.r.r.r.r.r.r.r.r.m     2.r.r.Y         Q r.r.r.r.r.C     L r.r.8.      > r.r.r.B       - 2.r.-   t.",
"t.t.t.  $ | r.r.r.r.r.r.r.r.r.r.r.r.r.r.r.r.r.m     ,.r.r.+.L m     c r.r.r.r.r.u     G r.r.8.      > r.r.r.B       - ,.r.-   t.",
"t.t.    G r.r.r.r.r.r.r.r.r.r.r.r.r.r.r.r.r.r.m     ,.r.r.r.r.X.    f r.r.r.r.r.0     L r.r.8.      > r.r.r.B       - 2.r.-   t.",
"t.t.t.    / r.r.r.r.r.r.r.r.r.r.r.r.r.r.r.r.r.m     2.r.r.r.r.+.    Z r.r.r.r.r.B     G r.r.8.      > r.r.r.B       - ,.r.-   t.",
"t.t.t.t.  O ! r.r.r.r.r.r.r.r.r.r.r.r.r.r.r.r.m     2.r.r.E * $     ~ r.r.r.r.r.)     L r.r.8.      > r.r.r.B       - 2.r.-   t.",
"t.t.t.t.t.    E r.r.r.r.r.r.r.r.r.r.r.r.r.r.r.m     ,.r.r.Y         @.r.r.| r.r.;.    G r.r.8.      > r.r.r.B       - ,.r.-   t.",
"t.t.t.t.t.t.    G r.r.r.r.r.r.r.r.r.r.r.r.r.r.m     ,.r.r.I         5.r.r.B r.r.r.6   L r.r.8.      > r.r.r.B       - 2.r.-   t.",
"t.t.t.t.t.t.t.O   D r.r.r.r.r.r.r.r.r.r.r.r.r.m     ,.r.r.r.8.8.8 3 r.r.r.i +.r.r.v   G r.r.8.      > r.r.r.B       - ,.r.-   t.",
"t.t.t.t.t.t.t.t.    C r.r.r.r.r.r.r.r.r.r.r.r.m     2.r.r.r.r.r.8 f r.r.r., Y r.r./   G r.r.8.      > r.r.r.B       - 2.r.-   t.",
"t.t.t.t.t.t.t.t.t.    v r.r.r.r.r.r.r.r.r.r.r.m     ' | | | | | , k | | [   a | | /   v | | [       - } } | h       - ,.r.-   t.",
"t.t.t.t.t.t.t.t.t.t.    x r.r.r.r.r.r.r.r.r.r.v                                                                     > ,.r.-   t.",
"t.t.t.t.t.t.t.t.t.t.t.    h 8.r.r.r.r.r.r.r.r.m                                                                     $ ,.r.-   t.",
"t.t.t.t.t.t.t.t.t.t.t.t.    f 5.r.r.r.r.r.r.r.| L I I L L L I L I L I I L I L L I L L I L I L L L I L I L I L I L L I 8.r.-   t.",
"t.t.t.t.t.t.t.t.t.t.t.t.t.    i 5.r.r.r.r.r.r.r.r.r.r.r.r.r.r.r.r.r.r.r.r.r.r.r.r.r.r.r.r.r.r.r.r.r.r.r.r.r.r.r.r.r.r.r.r.-   t.",
"t.t.t.t.t.t.t.t.t.t.t.t.t.t.    t 2.r.r.r.r.;.> > - - - - - > - - > - > - - - > - > - > - - - > - > - - - > - - - > - > -     t.",
"t.t.t.t.t.t.t.t.t.t.t.t.t.t.t.    w ,.r.r.r.=.                                                                                t.",
"t.t.t.t.t.t.t.t.t.t.t.t.t.t.t.t.    8 ;.r.r.=.    t.t.t.t.t.t.t.t.t.t.t.t.t.t.t.t.t.t.t.t.t.t.t.t.t.t.t.t.t.t.t.t.t.t.t.t.t.t.t.",
"t.t.t.t.t.t.t.t.t.t.t.t.t.t.t.t.t.    6 *.r.=.    t.t.t.t.t.t.t.t.t.t.t.t.t.t.t.t.t.t.t.t.t.t.t.t.t.t.t.t.t.t.t.t.t.t.t.t.t.t.t.",
"t.t.t.t.t.t.t.t.t.t.t.t.t.t.t.t.t.t.    , &.;.    t.t.t.t.t.t.t.t.t.t.t.t.t.t.t.t.t.t.t.t.t.t.t.t.t.t.t.t.t.t.t.t.t.t.t.t.t.t.t.",
"t.t.t.t.t.t.t.t.t.t.t.t.t.t.t.t.t.t.t.    > }     t.t.t.t.t.t.t.t.t.t.t.t.t.t.t.t.t.t.t.t.t.t.t.t.t.t.t.t.t.t.t.t.t.t.t.t.t.t.t.",
"t.t.t.t.t.t.t.t.t.t.t.t.t.t.t.t.t.t.t.t.    $     t.t.t.t.t.t.t.t.t.t.t.t.t.t.t.t.t.t.t.t.t.t.t.t.t.t.t.t.t.t.t.t.t.t.t.t.t.t.t.",
"t.t.t.t.t.t.t.t.t.t.t.t.t.t.t.t.t.t.t.t.t.t.      t.t.t.t.t.t.t.t.t.t.t.t.t.t.t.t.t.t.t.t.t.t.t.t.t.t.t.t.t.t.t.t.t.t.t.t.t.t.t.",
"t.t.t.t.t.t.t.t.t.t.t.t.t.t.t.t.t.t.t.t.t.t.t.    t.t.t.t.t.t.t.t.t.t.t.t.t.t.t.t.t.t.t.t.t.t.t.t.t.t.t.t.t.t.t.t.t.t.t.t.t.t.t.",
"t.t.t.t.t.t.t.t.t.t.t.t.t.t.t.t.t.t.t.t.t.t.t.t.  t.t.t.t.t.t.t.t.t.t.t.t.t.t.t.t.t.t.t.t.t.t.t.t.t.t.t.t.t.t.t.t.t.t.t.t.t.t.t.",
"t.t.t.t.t.t.t.t.t.t.t.t.t.t.t.t.t.t.t.t.t.t.t.t.t.t.t.t.t.t.t.t.t.t.t.t.t.t.t.t.t.t.t.t.t.t.t.t.t.t.t.t.t.t.t.t.t.t.t.t.t.t.t.t.",
"t.t.t.t.t.t.t.t.t.t.t.t.t.t.t.t.t.t.t.t.t.t.t.t.t.t.t.t.t.t.t.t.t.t.t.t.t.t.t.t.t.t.t.t.t.t.t.t.t.t.t.t.t.t.t.t.t.t.t.t.t.t.t.t.",
"t.t.t.t.t.t.t.t.t.t.t.t.t.t.t.t.t.t.t.t.t.t.t.t.t.t.t.t.t.t.t.t.t.t.t.t.t.t.t.t.t.t.t.t.t.t.t.t.t.t.t.t.t.t.t.t.t.t.t.t.t.t.t.t.",
"t.t.t.t.t.t.t.t.t.t.t.t.t.t.t.t.t.t.t.t.t.t.t.t.t.t.t.t.t.t.t.t.t.t.t.t.t.t.t.t.t.t.t.t.t.t.t.t.t.t.t.t.t.t.t.t.t.t.t.t.t.t.t.t.",
"t.t.t.t.t.t.t.t.t.t.t.t.t.t.t.t.t.t.t.t.t.t.t.t.t.t.t.t.t.t.t.t.t.t.t.t.t.t.t.t.t.t.t.t.t.t.t.t.t.t.t.t.t.t.t.t.t.t.t.t.t.t.t.t.",
"t.t.t.t.t.t.t.t.t.t.t.t.t.t.t.t.t.t.t.t.t.t.t.t.t.t.t.t.t.t.t.t.t.t.t.t.t.t.t.t.t.t.t.t.t.t.t.t.t.t.t.t.t.t.t.t.t.t.t.t.t.t.t.t.",
"t.t.t.t.t.t.t.t.t.t.t.t.t.t.t.t.t.t.t.t.t.t.t.t.t.t.t.t.t.t.t.t.t.t.t.t.t.t.t.t.t.t.t.t.t.t.t.t.t.t.t.t.t.t.t.t.t.t.t.t.t.t.t.t.",
"t.t.t.t.t.t.t.t.t.t.t.t.t.t.t.t.t.t.t.t.t.t.t.t.t.t.t.t.t.t.t.t.t.t.t.t.t.t.t.t.t.t.t.t.t.t.t.t.t.t.t.t.t.t.t.t.t.t.t.t.t.t.t.t.",
"t.t.t.t.t.t.t.t.t.t.t.t.t.t.t.t.t.t.t.t.t.t.t.t.t.t.t.t.t.t.t.t.t.t.t.t.t.t.t.t.t.t.t.t.t.t.t.t.t.t.t.t.t.t.t.t.t.t.t.t.t.t.t.t.",
"t.t.t.t.t.t.t.t.t.t.t.t.t.t.t.t.t.t.t.t.t.t.t.t.t.t.t.t.t.t.t.t.t.t.t.t.t.t.t.t.t.t.t.t.t.t.t.t.t.t.t.t.t.t.t.t.t.t.t.t.t.t.t.t."
};
