/* XPM */
static char *hand[] = {
/* columns rows colors chars-per-pixel */
"64 64 164 2 ",
"   c black",
".  c #010101",
"X  c #020202",
"o  c gray1",
"O  c #040404",
"+  c gray2",
"@  c #060606",
"#  c #070707",
"$  c gray3",
"%  c #090909",
"&  c gray4",
"*  c #0B0B0B",
"=  c gray5",
"-  c #0E0E0E",
";  c #101010",
":  c gray7",
">  c #131313",
",  c gray8",
"<  c #151515",
"1  c #161616",
"2  c gray9",
"3  c #181818",
"4  c #191919",
"5  c #1B1B1B",
"6  c #1D1D1D",
"7  c gray12",
"8  c gray13",
"9  c #232323",
"0  c #252525",
"q  c #272727",
"w  c gray16",
"e  c #2A2A2A",
"r  c gray17",
"t  c #2D2D2D",
"y  c #2F2F2F",
"u  c #313131",
"i  c gray20",
"p  c #343434",
"a  c #353535",
"s  c #373737",
"d  c gray22",
"f  c #3A3A3A",
"g  c gray23",
"h  c #3C3C3C",
"j  c #3E3E3E",
"k  c #3F3F3F",
"l  c #434343",
"z  c #444444",
"x  c gray27",
"c  c #464646",
"v  c gray28",
"b  c gray29",
"n  c #4C4C4C",
"m  c gray30",
"M  c #515151",
"N  c #555555",
"B  c #565656",
"V  c gray35",
"C  c #5A5A5A",
"Z  c gray36",
"A  c #5D5D5D",
"S  c gray37",
"D  c #606060",
"F  c #626262",
"G  c #646464",
"H  c #656565",
"J  c gray40",
"K  c #676767",
"L  c gray42",
"P  c #6C6C6C",
"I  c #6D6D6D",
"U  c gray43",
"Y  c #6F6F6F",
"T  c gray44",
"R  c #727272",
"E  c gray45",
"W  c #747474",
"Q  c #767676",
"!  c #777777",
"~  c #797979",
"^  c gray48",
"/  c #7C7C7C",
"(  c gray49",
")  c #7E7E7E",
"_  c #808080",
"`  c #818181",
"'  c gray51",
"]  c #838383",
"[  c #848484",
"{  c #868686",
"}  c #898989",
"|  c gray55",
" . c gray56",
".. c #909090",
"X. c #939393",
"o. c gray58",
"O. c gray59",
"+. c #979797",
"@. c #9A9A9A",
"#. c #9F9F9F",
"$. c #A0A0A0",
"%. c #A4A4A4",
"&. c gray65",
"*. c #AAAAAA",
"=. c #AFAFAF",
"-. c gray69",
";. c #B1B1B1",
":. c #B2B2B2",
">. c #B6B6B6",
",. c #B9B9B9",
"<. c gray73",
"1. c #BBBBBB",
"2. c #BCBCBC",
"3. c #C0C0C0",
"4. c gray76",
"5. c #C3C3C3",
"6. c gray78",
"7. c #C8C8C8",
"8. c gray79",
"9. c #CACACA",
"0. c #CBCBCB",
"q. c gray80",
"w. c #CDCDCD",
"e. c #CECECE",
"r. c #D0D0D0",
"t. c #D2D2D2",
"y. c LightGray",
"u. c #D5D5D5",
"i. c #D8D8D8",
"p. c gray85",
"a. c #DADADA",
"s. c gray86",
"d. c gainsboro",
"f. c #DDDDDD",
"g. c gray87",
"h. c #DFDFDF",
"j. c gray88",
"k. c #E1E1E1",
"l. c #E2E2E2",
"z. c gray89",
"x. c #E4E4E4",
"c. c gray90",
"v. c #E6E6E6",
"b. c #E7E7E7",
"n. c gray91",
"m. c #E9E9E9",
"M. c #EAEAEA",
"N. c gray92",
"B. c #ECECEC",
"V. c gray93",
"C. c #EEEEEE",
"Z. c #EFEFEF",
"A. c gray94",
"S. c gray95",
"D. c #F3F3F3",
"F. c #F6F6F6",
"G. c #F8F8F8",
"H. c #F9F9F9",
"J. c #FBFBFB",
"K. c gray99",
"L. c #FDFDFD",
"P. c #FEFEFE",
"I. c white",
"U. c None",
/* pixels */
"U.U.U.U.U.U.U.U.U.U.U.U.U.U.U.U.U.U.U.U.U.U.U.U.U.U.U.U.U.U.U.U.U.U.U.U.U.U.U.U.U.U.U.U.U.U.U.U.U.U.U.U.U.U.U.U.U.U.U.U.U.U.U.U.",
"U.U.U.U.U.U.U.U.U.U.U.U.U.U.U.U.U.U.U.U.U.U.U.U.U.U.U.U.U.U.U.U.U.U.U.U.U.U.U.U.U.U.U.U.U.U.U.U.U.U.U.U.U.U.U.U.U.U.U.U.U.U.U.U.",
"U.U.U.U.U.U.U.U.U.U.U.U.U.U.U.U.U.U.U.U.U.U.U.U.U.U.U.U.U.U.U.U.U.U.U.U.U.U.U.U.U.U.U.U.U.U.U.U.U.U.U.U.U.U.U.U.U.U.U.U.U.U.U.U.",
"U.U.U.U.U.U.U.U.U.U.U.U.U.U.U.U.U.U.U.U.U.U.U.U.U.U.U.U.U.U.U.U.U.U.U.U.U.U.U.U.U.U.U.U.U.U.U.U.U.U.U.U.U.U.U.U.U.U.U.U.U.U.U.U.",
"U.U.U.U.U.U.U.U.U.U.U.U.U.U.U.U.U.U.U.U.U.U.U.          U.U.U.U.U.U.U.U.U.U.U.U.U.U.U.U.U.U.U.U.U.U.U.U.U.U.U.U.U.U.U.U.U.U.U.U.",
"U.U.U.U.U.U.U.U.U.U.U.U.U.U.U.U.U.U.U.U.U.U.O   l ! i     U.U.U.U.U.U.U.U.U.U.U.U.U.U.U.U.U.U.U.U.U.U.U.U.U.U.U.U.U.U.U.U.U.U.U.",
"U.U.U.U.U.U.U.U.U.U.U.U.U.U.U.U.U.U.U.U.    $ -.I.I.I.{     U.U.U.U.U.U.U.U.U.U.U.U.U.U.U.U.U.U.U.U.U.U.U.U.U.U.U.U.U.U.U.U.U.U.",
"U.U.U.U.U.U.U.U.U.U.U.U.U.U.U.U.U.U.U.U.  = q.I.I.I.I.I.E   U.U.U.U.U.U.U.U.U.U.U.U.U.U.U.U.U.U.U.U.U.U.U.U.U.U.U.U.U.U.U.U.U.U.",
"U.U.U.U.U.U.U.U.U.U.U.U.U.U.U.U.U.U.U.U.  q I.I.I.I.I.I.-.  U.U.U.U.U.U.U.U.U.U.U.U.U.U.U.U.U.U.U.U.U.U.U.U.U.U.U.U.U.U.U.U.U.U.",
"U.U.U.U.U.U.U.U.U.U.U.U.U.U.U.U.U.U.U.U.  8 I.I.I.I.I.I.,.    U.U.U.U.U.U.U.U.U.U.U.U.U.U.U.U.U.U.U.U.U.U.U.U.U.U.U.U.U.U.U.U.U.",
"U.U.U.U.U.U.U.U.U.U.U.U.U.U.U.U.U.U.U.U.  6 I.I.I.I.I.I.5.    U.U.U.U.U.U.U.U.U.U.U.U.U.U.U.U.U.U.U.U.U.U.U.U.U.U.U.U.U.U.U.U.U.",
"U.U.U.U.U.U.U.U.U.U.U.U.U.U.U.U.U.U.U.U.  5 I.I.I.I.I.I.q.    U.U.U.U.U.U.U.U.U.U.U.U.U.U.U.U.U.U.U.U.U.U.U.U.U.U.U.U.U.U.U.U.U.",
"U.U.U.U.U.U.U.U.U.U.U.U.U.U.U.U.U.U.U.U.  2 I.I.I.I.I.I.u.    U.U.U.U.U.U.U.U.U.U.U.U.U.U.U.U.U.U.U.U.U.U.U.U.U.U.U.U.U.U.U.U.U.",
"U.U.U.U.U.U.U.U.U.U.U.U.U.U.U.U.U.U.U.U.  > I.I.I.I.I.I.j.    U.U.U.U.U.U.U.U.U.U.U.U.U.U.U.U.U.U.U.U.U.U.U.U.U.U.U.U.U.U.U.U.U.",
"U.U.U.U.U.U.U.U.U.U.U.U.U.U.U.U.U.U.U.U.  = I.I.I.I.I.I.x.    U.U.U.U.U.U.U.U.U.U.U.U.U.U.U.U.U.U.U.U.U.U.U.U.U.U.U.U.U.U.U.U.U.",
"U.U.U.U.U.U.U.U.U.U.U.U.U.U.U.U.U.U.U.U.  $ I.I.I.I.I.I.D.    U.U.U.U.U.U.U.U.U.U.U.U.U.U.U.U.U.U.U.U.U.U.U.U.U.U.U.U.U.U.U.U.U.",
"U.U.U.U.U.U.U.U.U.U.U.U.U.U.U.U.U.U.U.U.  O I.I.I.I.I.I.H.    U.U.U.  U.U.U.U.U.U.U.U.U.U.U.U.U.U.U.U.U.U.U.U.U.U.U.U.U.U.U.U.U.",
"U.U.U.U.U.U.U.U.U.U.U.U.U.U.U.U.U.U.U.U.  O I.I.I.I.I.I.I.O                   U.U.U.U.U.U.U.U.U.U.U.U.U.U.U.U.U.U.U.U.U.U.U.U.U.",
"U.U.U.U.U.U.U.U.U.U.U.U.U.U.U.U.U.U.U.U.    I.I.I.I.I.I.I.=     p ^ =.{ x O   U.            U.U.U.U.U.U.U.U.U.U.U.U.U.U.U.U.U.U.",
"U.U.U.U.U.U.U.U.U.U.U.U.U.U.U.U.U.U.U.U.    I.I.I.I.I.I.I.5     F.I.I.I.I.w       t S m $     U.U.U.U.U.U.U.U.U.U.U.U.U.U.U.U.U.",
"U.U.U.U.U.U.U.U.U.U.U.U.U.U.U.U.U.U.U.U.    H.I.I.I.I.I.I.8   O I.I.I.I.I.f     G I.I.I.F...    U.U.U.U.U.U.U.U.U.U.U.U.U.U.U.U.",
"U.U.U.U.U.U.U.U.U.U.U.U.U.U.U.U.U.U.U.U.    F.I.I.I.I.I.I.t   2 I.I.I.I.I.m     { I.I.I.I.q.    U.U.U.U.U.U.U.U.U.U.U.U.U.U.U.U.",
"U.U.U.U.U.U.U.U.U.U.U.U.U.U.U.U.U.U.U.U.    D.I.I.I.I.I.I.p   w I.I.I.I.I.S     @.I.I.I.I.p.                U.U.U.U.U.U.U.U.U.U.",
"U.U.U.U.U.U.U.U.U.U.U.U.U.U.U.U.U.U.U.U.    C.I.I.I.I.I.I.j   f I.I.I.I.I.I     =.I.I.I.I.x.    f @.#.S =     U.U.U.U.U.U.U.U.U.",
"U.U.U.U.U.U.U.U.U.U.U.U.U.U.U.U.U.U.U.U.    N.I.I.I.I.I.I.x   m I.I.I.I.I.(     6.I.I.I.I.D.    I I.I.I.F.C   U.U.U.U.U.U.U.U.U.",
"U.U.U.U.U.U.U.U.U.U.U.U.U.U.U.U.U.U.U.U.    x.I.I.I.I.I.I.M   S I.I.I.I.I. .    f.I.I.I.I.H.    ( I.I.I.I. .  U.U.U.U.U.U.U.U.U.",
"U.U.U.U.U.U.U.U.U.U.U.U.U.U.U.U.U.U.U.U.    x.I.I.I.I.I.I.C   E I.I.I.I.I.$.    D.I.I.I.I.I.$   } I.I.I.I.*.  U.U.U.U.U.U.U.U.U.",
"U.U.U.U.U.U.U.U.U.            U.U.U.U.U.    j.I.I.I.I.I.I.G   ' I.I.I.I.I.-.  $ I.I.I.I.I.I.2   o.I.I.I.I.8.    U.U.U.U.U.U.U.U.",
"U.U.U.U.U.U.U.U.    $ 5 5       U.U.U.U.    f.I.I.I.I.I.I.I   o.I.I.I.I.I.5.  6 I.I.I.I.I.I.8   &.I.I.I.I.x.    U.U.U.U.U.U.U.U.",
"U.U.U.U.U.U.U.U.  x D.I.I.H.,.>     U.U.    p.I.I.I.I.I.I.!   &.I.I.I.I.I.t.  p I.I.I.I.I.I.i   -.I.I.I.I.I.O   U.U.U.U.U.U.U.U.",
"U.U.U.U.U.U.U.U.   .I.I.I.I.I.f.q     U.    u.I.I.I.I.I.I.,.E u.I.I.I.I.I.x.q G I.I.I.I.I.I.f   5.I.I.I.I.I.q   U.U.U.U.U.U.U.U.",
"U.U.U.U.U.U.U.U.  ( I.I.I.I.I.I.C.x         t.I.I.I.I.I.I.I.I.I.I.I.I.I.I.I.I.I.I.I.I.I.I.I.b   8.I.I.I.I.I.j   U.U.U.U.U.U.U.U.",
"U.U.U.U.U.U.U.U.  b I.I.I.I.I.I.I.H.G       q.I.I.I.I.I.I.I.I.I.I.I.I.I.I.I.I.I.I.I.I.I.I.I.S = f.I.I.I.I.I.b   U.U.U.U.U.U.U.U.",
"U.U.U.U.U.U.U.U.  O C.I.I.I.I.I.I.I.I. .    q.I.I.I.I.I.I.I.I.I.I.I.I.I.I.I.I.I.I.I.I.I.I.I.I.I.I.I.I.I.I.I.N   U.U.U.U.U.U.U.U.",
"U.U.U.U.U.U.U.U.U.  C I.I.I.I.I.I.I.I.I.D   6.I.I.I.I.I.I.I.I.I.I.I.I.I.I.I.I.I.I.I.I.I.I.I.I.I.I.I.I.I.I.I.D   U.U.U.U.U.U.U.U.",
"U.U.U.U.U.U.U.U.U.    ..I.I.I.I.I.I.I.I.E   5.I.I.I.I.I.I.I.I.I.I.I.I.I.I.I.I.I.I.I.I.I.I.I.I.I.I.I.I.I.I.I.L   U.U.U.U.U.U.U.U.",
"U.U.U.U.U.U.U.U.U.U.  O 8.I.I.I.I.I.I.I.E   5.I.I.I.I.I.I.I.I.I.I.I.I.I.I.I.I.I.I.I.I.I.I.I.I.I.I.I.I.I.I.I.!   U.U.U.U.U.U.U.U.",
"U.U.U.U.U.U.U.U.U.U.U.  6 C.I.I.I.I.I.I.^   ,.I.I.I.I.I.I.I.I.I.I.I.I.I.I.I.I.I.I.I.I.I.I.I.I.I.I.I.I.I.I.I.'   U.U.U.U.U.U.U.U.",
"U.U.U.U.U.U.U.U.U.U.U.    m I.I.I.I.I.I.o.i 8.I.I.I.I.I.I.I.I.I.I.I.I.I.I.I.I.I.I.I.I.I.I.I.I.I.I.I.I.I.I.I.'   U.U.U.U.U.U.U.U.",
"U.U.U.U.U.U.U.U.U.U.U.U.    } I.I.I.I.I.I.I.I.I.I.I.I.I.I.I.I.I.I.I.I.I.I.I.I.I.I.I.I.I.I.I.I.I.I.I.I.I.I.I.L   U.U.U.U.U.U.U.U.",
"U.U.U.U.U.U.U.U.U.U.U.U.U.    6.I.I.I.I.I.I.I.I.I.I.I.I.I.I.I.I.I.I.I.I.I.I.I.I.I.I.I.I.I.I.I.I.I.I.I.I.I.I.N   U.U.U.U.U.U.U.U.",
"U.U.U.U.U.U.U.U.U.U.U.U.U.U.  5 N.I.I.I.I.I.I.I.I.I.I.I.I.I.I.I.I.I.I.I.I.I.I.I.I.I.I.I.I.I.I.I.I.I.I.I.I.I.j   U.U.U.U.U.U.U.U.",
"U.U.U.U.U.U.U.U.U.U.U.U.U.U.    l I.I.I.I.I.I.I.I.I.I.I.I.I.I.I.I.I.I.I.I.I.I.I.I.I.I.I.I.I.I.I.I.I.I.I.I.I.w   U.U.U.U.U.U.U.U.",
"U.U.U.U.U.U.U.U.U.U.U.U.U.U.U.    ' I.I.I.I.I.I.I.I.I.I.I.I.I.I.I.I.I.I.I.I.I.I.I.I.I.I.I.I.I.I.I.I.I.I.I.I.>   U.U.U.U.U.U.U.U.",
"U.U.U.U.U.U.U.U.U.U.U.U.U.U.U.U.    ,.I.I.I.I.I.I.I.I.I.I.I.I.I.I.I.I.I.I.I.I.I.I.I.I.I.I.I.I.I.I.I.I.I.I.t.    U.U.U.U.U.U.U.U.",
"U.U.U.U.U.U.U.U.U.U.U.U.U.U.U.U.U.  2 x.I.I.I.I.I.I.I.I.I.I.I.I.I.I.I.I.I.I.I.I.I.I.I.I.I.I.I.I.I.I.I.I.I.!   U.U.U.U.U.U.U.U.U.",
"U.U.U.U.U.U.U.U.U.U.U.U.U.U.U.U.U.U.  j H.I.I.I.I.I.I.I.I.I.I.I.I.I.I.I.I.I.I.I.I.I.I.I.I.I.I.I.I.I.I.I.I.5   U.U.U.U.U.U.U.U.U.",
"U.U.U.U.U.U.U.U.U.U.U.U.U.U.U.U.U.U.    ! I.I.I.I.I.I.I.I.I.I.I.I.I.I.I.I.I.I.I.I.I.I.I.I.I.I.I.I.I.I.I.>.    U.U.U.U.U.U.U.U.U.",
"U.U.U.U.U.U.U.U.U.U.U.U.U.U.U.U.U.U.U.    -.I.I.I.I.I.I.I.I.I.I.I.I.I.I.I.I.I.I.I.I.I.I.I.I.I.I.I.I.I.I.C   U.U.U.U.U.U.U.U.U.U.",
"U.U.U.U.U.U.U.U.U.U.U.U.U.U.U.U.U.U.U.U.  > j.I.I.I.I.I.I.I.I.I.I.I.I.I.I.I.I.I.I.I.I.I.I.I.I.I.I.I.I.C.O   U.U.U.U.U.U.U.U.U.U.",
"U.U.U.U.U.U.U.U.U.U.U.U.U.U.U.U.U.U.U.U.U.  p H.I.I.I.I.I.I.I.I.I.I.I.I.I.I.I.I.I.I.I.I.I.I.I.I.I.I.I.'   U.U.U.U.U.U.U.U.U.U.U.",
"U.U.U.U.U.U.U.U.U.U.U.U.U.U.U.U.U.U.U.U.U.    I I.I.I.I.I.I.I.I.I.I.I.I.I.I.I.I.I.I.I.I.I.I.I.I.I.I.C.>   U.U.U.U.U.U.U.U.U.U.U.",
"U.U.U.U.U.U.U.U.U.U.U.U.U.U.U.U.U.U.U.U.U.U.    -.I.I.I.I.I.I.I.I.I.I.I.I.I.I.I.I.I.I.I.I.I.I.I.I.I.'   U.U.U.U.U.U.U.U.U.U.U.U.",
"U.U.U.U.U.U.U.U.U.U.U.U.U.U.U.U.U.U.U.U.U.U.U.  ^ I.I.I.I.I.I.I.I.I.I.I.I.I.I.I.I.I.I.I.I.I.I.I.I.I.w   U.U.U.U.U.U.U.U.U.U.U.U.",
"U.U.U.U.U.U.U.U.U.U.U.U.U.U.U.U.U.U.U.U.U.U.U.  E I.I.I.I.I.I.I.I.I.I.I.I.I.I.I.I.I.I.I.I.I.I.I.I.I.6   U.U.U.U.U.U.U.U.U.U.U.U.",
"U.U.U.U.U.U.U.U.U.U.U.U.U.U.U.U.U.U.U.U.U.U.U.  G I.I.I.I.I.I.I.I.I.I.I.I.I.I.I.I.I.I.I.I.I.I.I.I.I.2   U.U.U.U.U.U.U.U.U.U.U.U.",
"U.U.U.U.U.U.U.U.U.U.U.U.U.U.U.U.U.U.U.U.U.U.U.  S I.I.I.I.I.I.I.I.I.I.I.I.I.I.I.I.I.I.I.I.I.I.I.I.I.$   U.U.U.U.U.U.U.U.U.U.U.U.",
"U.U.U.U.U.U.U.U.U.U.U.U.U.U.U.U.U.U.U.U.U.U.U.  x p.p.p.p.f.f.j.f.j.j.j.j.x.x.x.N.x.x.N.N.N.N.C.C.D.O   U.U.U.U.U.U.U.U.U.U.U.U.",
"U.U.U.U.U.U.U.U.U.U.U.U.U.U.U.U.U.U.U.U.U.U.U.                                                          U.U.U.U.U.U.U.U.U.U.U.U.",
"U.U.U.U.U.U.U.U.U.U.U.U.U.U.U.U.U.U.U.U.U.U.U.                                                          U.U.U.U.U.U.U.U.U.U.U.U.",
"U.U.U.U.U.U.U.U.U.U.U.U.U.U.U.U.U.U.U.U.U.U.U.U.U.U.U.U.U.U.U.U.U.U.U.U.U.U.U.U.U.U.U.U.U.U.U.U.U.U.U.U.U.U.U.U.U.U.U.U.U.U.U.U.",
"U.U.U.U.U.U.U.U.U.U.U.U.U.U.U.U.U.U.U.U.U.U.U.U.U.U.U.U.U.U.U.U.U.U.U.U.U.U.U.U.U.U.U.U.U.U.U.U.U.U.U.U.U.U.U.U.U.U.U.U.U.U.U.U.",
"U.U.U.U.U.U.U.U.U.U.U.U.U.U.U.U.U.U.U.U.U.U.U.U.U.U.U.U.U.U.U.U.U.U.U.U.U.U.U.U.U.U.U.U.U.U.U.U.U.U.U.U.U.U.U.U.U.U.U.U.U.U.U.U.",
"U.U.U.U.U.U.U.U.U.U.U.U.U.U.U.U.U.U.U.U.U.U.U.U.U.U.U.U.U.U.U.U.U.U.U.U.U.U.U.U.U.U.U.U.U.U.U.U.U.U.U.U.U.U.U.U.U.U.U.U.U.U.U.U."
};
