/* XPM */
static char *home[] = {
/* columns rows colors chars-per-pixel */
"64 64 161 2 ",
"   c black",
".  c #010101",
"X  c #020202",
"o  c gray1",
"O  c gray2",
"+  c #060606",
"@  c #070707",
"#  c gray3",
"$  c #090909",
"%  c #0B0B0B",
"&  c #0C0C0C",
"*  c gray5",
"=  c #0E0E0E",
"-  c gray6",
";  c #101010",
":  c #111111",
">  c gray7",
",  c gray8",
"<  c #161616",
"1  c #181818",
"2  c #191919",
"3  c gray10",
"4  c #1B1B1B",
"5  c gray11",
"6  c #1D1D1D",
"7  c gray12",
"8  c #202020",
"9  c gray13",
"0  c #222222",
"q  c gray14",
"w  c gray15",
"e  c #272727",
"r  c #282828",
"t  c #2A2A2A",
"y  c gray17",
"u  c #2D2D2D",
"i  c #2F2F2F",
"p  c #313131",
"a  c #323232",
"s  c gray20",
"d  c #343434",
"f  c gray21",
"g  c gray22",
"h  c #393939",
"j  c #3A3A3A",
"k  c #3C3C3C",
"l  c #3F3F3F",
"z  c gray25",
"x  c #414141",
"c  c gray26",
"v  c #484848",
"b  c #494949",
"n  c #4C4C4C",
"m  c gray30",
"M  c #4E4E4E",
"N  c #505050",
"B  c #515151",
"V  c #555555",
"C  c #565656",
"Z  c #5A5A5A",
"A  c #5B5B5B",
"S  c gray36",
"D  c #5D5D5D",
"F  c gray37",
"G  c #5F5F5F",
"H  c #606060",
"J  c gray38",
"K  c #626262",
"L  c gray39",
"P  c #676767",
"I  c #686868",
"U  c DimGray",
"Y  c #6F6F6F",
"T  c #747474",
"R  c #767676",
"E  c #777777",
"W  c gray47",
"Q  c #797979",
"!  c gray48",
"~  c #7B7B7B",
"^  c #7C7C7C",
"/  c gray49",
"(  c #7E7E7E",
")  c gray50",
"_  c #808080",
"`  c #848484",
"'  c gray53",
"]  c #888888",
"[  c #8B8B8B",
"{  c #8E8E8E",
"}  c gray56",
"|  c #909090",
" . c gray57",
".. c #929292",
"X. c #939393",
"o. c gray58",
"O. c #959595",
"+. c #9A9A9A",
"@. c gray61",
"#. c #9D9D9D",
"$. c #A0A0A0",
"%. c gray63",
"&. c #A4A4A4",
"*. c #A5A5A5",
"=. c gray65",
"-. c gray66",
";. c #ACACAC",
":. c #AEAEAE",
">. c #AFAFAF",
",. c #B1B1B1",
"<. c #B6B6B6",
"1. c #B7B7B7",
"2. c gray72",
"3. c #B9B9B9",
"4. c gray73",
"5. c #BBBBBB",
"6. c #BCBCBC",
"7. c gray74",
"8. c gray",
"9. c gray75",
"0. c #C1C1C1",
"q. c gray76",
"w. c gray77",
"e. c #C5C5C5",
"r. c gray78",
"t. c #C8C8C8",
"y. c gray79",
"u. c #CBCBCB",
"i. c gray80",
"p. c gray81",
"a. c #D2D2D2",
"s. c #D8D8D8",
"d. c gainsboro",
"f. c #DDDDDD",
"g. c gray87",
"h. c #DFDFDF",
"j. c gray88",
"k. c #E4E4E4",
"l. c gray90",
"z. c #E7E7E7",
"x. c gray91",
"c. c gray92",
"v. c #ECECEC",
"b. c gray93",
"n. c #EEEEEE",
"m. c #EFEFEF",
"M. c gray94",
"N. c gray95",
"B. c #F3F3F3",
"V. c gray96",
"C. c #F6F6F6",
"Z. c gray97",
"A. c #F8F8F8",
"S. c #F9F9F9",
"D. c gray98",
"F. c #FBFBFB",
"G. c gray99",
"H. c #FDFDFD",
"J. c #FEFEFE",
"K. c white",
"L. c None",
/* pixels */
"L.L.L.L.L.L.L.L.L.L.L.L.L.L.L.L.L.L.L.L.L.L.L.L.L.L.L.L.L.L.L.L.L.L.L.L.L.L.L.L.L.L.L.L.L.L.L.L.L.L.L.L.L.L.L.L.L.L.L.L.L.L.L.L.",
"L.L.L.L.L.L.L.L.L.L.L.L.L.L.L.L.L.L.L.L.L.L.L.L.L.L.L.L.L.L.L.L.L.L.L.L.L.L.L.L.L.L.L.L.L.L.L.L.L.L.L.L.L.L.L.L.L.L.L.L.L.L.L.L.",
"L.L.L.L.L.L.L.L.L.L.L.L.L.L.L.L.L.L.L.L.L.L.L.L.L.L.L.L.L.L.L.L.L.L.L.L.L.L.L.L.L.L.L.L.L.L.L.L.L.L.L.L.L.L.L.L.L.L.L.L.L.L.L.L.",
"L.L.L.L.L.L.L.L.L.L.L.L.L.L.L.L.L.L.L.L.L.L.L.L.L.L.L.L.L.L.L.L.L.L.L.L.L.L.L.L.L.L.L.L.L.L.L.L.L.L.L.L.L.L.L.L.L.L.L.L.L.L.L.L.",
"L.L.L.L.L.L.L.L.L.L.L.L.L.L.L.L.L.L.L.L.L.L.L.L.L.L.L.L.L.L.L.L.L.L.L.L.L.L.L.L.L.L.L.L.L.L.L.L.L.L.L.L.L.L.L.L.L.L.L.L.L.L.L.L.",
"L.L.L.L.L.L.                                                                                                        L.L.L.L.L.L.",
"L.L.L.L.L.L.                                                                                                        L.L.L.L.L.L.",
"L.L.L.L.L.L.  ' K.K.K.K.K.K.K.K.K.K.K.K.K.K.K.K.K.K.K.K.K.K.K.K.K.K.K.K.K.K.K.K.K.K.K.K.K.K.K.K.K.K.K.K.K.K.K.K.'   L.L.L.L.L.L.",
"L.L.L.L.L.L.  ' K.K.K.K.K.K.K.K.K.K.K.K.K.K.K.K.K.K.K.K.K.K.K.K.K.K.K.K.K.K.K.K.K.K.K.K.K.K.K.K.K.K.K.K.K.K.K.K.'   L.L.L.L.L.L.",
"L.L.L.L.L.L.  ' K.K.K.K.K.K.K.K.K.K.K.K.K.K.K.K.K.K.K.K.K.K.K.K.K.K.K.K.K.K.K.K.K.K.K.K.K.K.K.K.K.K.K.K.K.K.K.K.'   L.L.L.L.L.L.",
"L.L.L.L.L.L.  ' K.K.K.K.K.K.K.K.K.K.K.K.K.K.K.K.K.K.K.K.K.K.K.K.K.K.K.K.K.K.K.K.K.K.K.K.K.K.K.K.K.K.K.K.K.K.K.K.'   L.L.L.L.L.L.",
"L.L.L.L.L.L.  R h.h.h.h.h.h.h.h.h.h.h.h.h.h.h.h.h.h.h.h.h.h.h.h.h.h.h.h.h.h.h.j.h.h.h.h.h.h.h.h.h.h.h.h.h.h.h.h.R   L.L.L.L.L.L.",
"L.L.L.L.L.L.                                                                                                        L.L.L.L.L.L.",
"L.L.L.L.L.L.                                                                                                        L.L.L.L.L.L.",
"L.L.L.L.L.L.L.L.L.L.L.L.L.L.L.L.L.L.L.L.L.L.L.L.L.L.L.L.L.L.    Z     L.L.L.L.L.L.L.L.L.L.L.L.L.L.L.L.L.L.L.L.L.L.L.L.L.L.L.L.L.",
"L.L.L.L.L.L.L.L.L.L.L.L.L.L.L.L.L.L.L.L.L.L.L.L.L.L.L.L.    : <.K.<.*     L.L.L.L.L.L.L.L.L.L.L.L.L.L.L.L.L.L.L.L.L.L.L.L.L.L.L.",
"L.L.L.L.L.L.L.L.L.L.L.L.L.L.L.L.L.L.L.L.L.L.L.L.L.L.L.    r s.K.K.K.i.3     L.L.L.L.L.L.L.L.L.L.L.L.L.L.L.L.L.L.L.L.L.L.L.L.L.L.",
"L.L.L.L.L.L.L.L.L.L.L.L.L.L.L.L.L.L.L.L.L.L.L.L.L.L.    n N.K.K.K.K.K.z.p     L.L.L.L.L.L.L.L.L.L.L.L.L.L.L.L.L.L.L.L.L.L.L.L.L.",
"L.L.L.L.L.L.L.L.L.L.L.L.L.L.L.L.L.L.L.L.L.L.L.L.L.    R A.K.K.K.K.K.K.K.N.n     L.L.L.L.L.L.L.L.L.L.L.L.L.L.L.L.L.L.L.L.L.L.L.L.",
"L.L.L.L.L.L.L.L.L.L.L.L.L.L.L.L.L.L.L.L.L.L.L.    O =.K.K.K.K.K.K.K.K.K.K.A.I     L.L.L.L.L.L.L.L.L.L.L.L.L.L.L.L.L.L.L.L.L.L.L.",
"L.L.L.L.L.L.L.L.L.L.L.L.L.L.L.L.L.L.L.L.L.L.    3 u.K.K.K.K.K.K.K.K.K.K.K.K.K.[     L.L.L.L.L.L.L.L.L.L.L.L.L.L.L.L.L.L.L.L.L.L.",
"L.L.L.L.L.L.L.L.L.L.L.L.L.L.L.L.L.L.L.L.L.    g z.K.K.K.K.K.K.K.K.K.K.K.K.K.K.K.:.#   L.L.L.L.L.L.L.L.L.L.L.L.L.L.L.L.L.L.L.L.L.",
"L.L.L.L.L.L.L.L.L.L.L.L.L.L.L.L.L.L.L.L.    L A.K.K.K.K.K.K.K.K.K.K.K.K.K.K.K.K.K.e.<     L.L.L.L.L.L.L.L.L.L.L.L.L.L.L.L.L.L.L.",
"L.L.L.L.L.L.L.L.L.L.L.L.L.L.L.L.L.L.L.  O ..K.K.K.K.K.K.K.K.K.K.K.K.K.K.K.K.K.K.K.K.h.e     L.L.L.L.L.L.L.L.L.L.L.L.L.L.L.L.L.L.",
"L.L.L.L.L.L.L.L.L.L.L.L.L.L.L.L.L.    : 7.K.K.K.K.K.K.K.K.K.K.K.K.K.K.K.K.K.K.K.K.K.K.b.l     L.L.L.L.L.L.L.L.L.L.L.L.L.L.L.L.L.",
"L.L.L.L.L.L.L.L.L.L.L.L.L.L.L.L.    r h.K.K.K.K.K.K.K.K.K.K.K.K.K.K.K.K.K.K.K.K.K.K.K.K.A.Z     L.L.L.L.L.L.L.L.L.L.L.L.L.L.L.L.",
"L.L.L.L.L.L.L.L.L.L.L.L.L.L.L.    n N.K.K.K.K.K.K.K.K.K.K.K.K.K.K.K.K.K.K.K.K.K.K.K.K.K.K.K.^     L.L.L.L.L.L.L.L.L.L.L.L.L.L.L.",
"L.L.L.L.L.L.L.L.L.L.L.L.L.L.    Q K.K.K.K.K.K.K.K.K.K.K.K.K.K.K.K.K.K.K.K.K.K.K.K.K.K.K.K.K.K.#.O   L.L.L.L.L.L.L.L.L.L.L.L.L.L.",
"L.L.L.L.L.L.L.L.L.L.L.L.    # =.K.K.K.K.K.K.K.K.K.K.K.K.K.K.K.K.K.K.K.K.K.K.K.K.K.K.K.K.K.K.K.K.4.*     L.L.L.L.L.L.L.L.L.L.L.L.",
"L.L.L.L.L.L.L.L.L.L.L.    3 u.K.K.K.K.K.K.K.K.K.K.K.K.K.K.K.K.K.K.K.K.K.K.K.K.K.K.K.K.K.K.K.K.K.K.a.5     L.L.L.L.L.L.L.L.L.L.L.",
"L.L.L.L.L.L.L.L.L.L.    g z.K.K.K.K.K.K.K.K.K.K.K.K.K.K.K.K.K.K.K.K.K.K.K.K.K.K.K.K.K.K.K.K.K.K.K.K.z.p     L.L.L.L.L.L.L.L.L.L.",
"L.L.L.L.L.L.L.L.L.    H A.K.K.K.K.K.K.K.K.K.K.K.K.K.K.K.K.K.K.K.K.K.K.K.K.K.K.K.K.K.K.K.K.K.K.K.K.K.K.N.n     L.L.L.L.L.L.L.L.L.",
"L.L.L.L.L.L.L.L.    ^ N.V.V.V.A.A.A.A.K.K.K.K.K.K.K.K.K.K.K.K.K.K.K.K.K.K.K.K.K.K.K.K.K.K.K.K.K.K.K.K.K.K.L     L.L.L.L.L.L.L.L.",
"L.L.L.L.L.L.                                    O O O # # # * * : : < < < 3 3 5 8 8 8 e e r r u u u p p f f O     L.L.L.L.L.L.L.",
"L.L.L.L.L.L.                                                                                    O                   L.L.L.L.L.L.",
"L.L.L.L.L.L.L.L.L.L.L.L.L.L.L.L.L.L.L.L.L.L.L.L.L.L.L.L.L.L.L.L.L.L.L.L.L.L.L.L.L.L.L.L.L.L.L.L.L.L.L.L.L.L.L.L.L.L.L.L.L.L.L.L.",
"L.L.L.L.L.L.L.L.L.L.L.L.L.L.L.L.L.L.L.L.L.L.L.L.L.L.L.L.L.L.L.L.L.L.L.L.L.L.L.L.L.L.L.L.L.L.L.L.L.L.L.L.L.L.L.L.L.L.L.L.L.L.L.L.",
"L.L.L.L.L.L.L.L.L.L.L.L.L.L.L.L.L.L.L.L.L.L.L.L.L.L.L.L.L.L.L.L.L.L.L.L.L.L.L.L.L.L.L.L.L.L.L.L.L.L.L.L.L.L.L.L.L.L.L.L.L.L.L.L.",
"L.L.L.L.L.L.L.                                                                                                    L.L.L.L.L.L.L.",
"L.L.L.L.L.L.L.                                                                                                    L.L.L.L.L.L.L.",
"L.L.L.L.L.L.L.      l N N N 5 8 N N N g       3 Z { { F 3       g N N N M p   8 N N N N M   8 N N N N N N r       L.L.L.L.L.L.L.",
"L.L.L.L.L.L.L.      7.K.K.K.H I K.K.K.<.    M b.K.K.K.K.c.n     4.K.K.K.K.4.  ^ K.K.K.K.V.  L K.K.K.K.K.K.^       L.L.L.L.L.L.L.",
"L.L.L.L.L.L.L.      0.K.K.K.F I K.K.K.<.  8 K.K.K.K.K.K.K.A.3   4.K.K.K.K.h.  +.K.K.K.K.V.  H K.K.K.K.K.K.^       L.L.L.L.L.L.L.",
"L.L.L.L.L.L.L.      0.K.K.K.F I K.K.K.<.  ' K.K.K.[ O.K.K.K.^   4.K.K.K.K.K.O 7.K.K.K.K.A.  L K.K.K.V.s.s.I       L.L.L.L.L.L.L.",
"L.L.L.L.L.L.L.      0.K.K.K.F I K.K.K.<.  :.K.K.K.F L K.K.K.=.  4.K.K.K.K.K.e h.K.K.K.K.V.  L K.K.K.7.            L.L.L.L.L.L.L.",
"L.L.L.L.L.L.L.      0.K.K.K.F I K.K.K.<.  4.K.K.K.V H K.K.K.:.  <.K.K.K.K.K.N A.K.K.K.K.V.  H K.K.K.7.            L.L.L.L.L.L.L.",
"L.L.L.L.L.L.L.      0.K.K.K.u.u.K.K.K.<.  0.K.K.K.V H K.K.K.4.  4.K.K.b.K.K...K.K.c.K.K.V.  L K.K.K.e.r r #       L.L.L.L.L.L.L.",
"L.L.L.L.L.L.L.      0.K.K.K.K.K.K.K.K.<.  u.K.K.K.V H K.K.K.7.  4.K.K.h.c.K.s.K.K.e.K.K.V.  L K.K.K.K.K.K.M       L.L.L.L.L.L.L.",
"L.L.L.L.L.L.L.      0.K.K.K.K.K.K.K.K.<.  u.K.K.K.V H K.K.K.7.  <.K.K.h.e.K.K.K.K.=.K.K.A.  H K.K.K.K.K.K.M       L.L.L.L.L.L.L.",
"L.L.L.L.L.L.L.      0.K.K.K.c.b.K.K.K.<.  u.K.K.K.V H K.K.K.7.  4.K.K.h.%.K.K.K.h.%.K.K.V.  L K.K.K.V.j.j.c       L.L.L.L.L.L.L.",
"L.L.L.L.L.L.L.      0.K.K.K.F I K.K.K.<.  e.K.K.K.V H K.K.K.4.  4.K.K.h.Q K.K.K.4.%.K.K.V.  L K.K.K.7.            L.L.L.L.L.L.L.",
"L.L.L.L.L.L.L.      0.K.K.K.F I K.K.K.<.  4.K.K.K.V H K.K.K.:.  <.K.K.h.V K.K.K.+.%.K.K.A.  H K.K.K.7.            L.L.L.L.L.L.L.",
"L.L.L.L.L.L.L.      0.K.K.K.F I K.K.K.<.  ,.K.K.K.F I K.K.K.=.  4.K.K.h.p K.K.K.Q %.K.K.A.  L K.K.K.4.            L.L.L.L.L.L.L.",
"L.L.L.L.L.L.L.      0.K.K.K.F I K.K.K.<.  O.K.K.K.R ^ K.K.K.[   4.K.K.h.# K.K.K.V %.K.K.V.  L K.K.K.c.-.-.Q       L.L.L.L.L.L.L.",
"L.L.L.L.L.L.L.      0.K.K.K.F I K.K.K.<.  p K.K.K.A.A.K.K.K.r   4.K.K.h.  z.K.K.p %.K.K.V.  H K.K.K.K.K.K.7.      L.L.L.L.L.L.L.",
"L.L.L.L.L.L.L.      0.K.K.K.H I K.K.K.<.    ^ K.K.K.K.K.K.R     4.K.K.s.  7.K.K.: %.K.K.A.  L K.K.K.K.K.K.7.      L.L.L.L.L.L.L.",
"L.L.L.L.L.L.L.      H _ _ _ u f _ _ _ F       c ..0.7...c       Z _ _ Y   N _ ^   N _ _ Q   p _ _ _ _ _ _ F       L.L.L.L.L.L.L.",
"L.L.L.L.L.L.L.                                                                                                    L.L.L.L.L.L.L.",
"L.L.L.L.L.L.L.                                                                                                    L.L.L.L.L.L.L.",
"L.L.L.L.L.L.L.L.L.L.L.L.L.L.L.L.L.L.L.L.L.L.L.L.L.L.L.L.L.L.L.L.L.L.L.L.L.L.L.L.L.L.L.L.L.L.L.L.L.L.L.L.L.L.L.L.L.L.L.L.L.L.L.L.",
"L.L.L.L.L.L.L.L.L.L.L.L.L.L.L.L.L.L.L.L.L.L.L.L.L.L.L.L.L.L.L.L.L.L.L.L.L.L.L.L.L.L.L.L.L.L.L.L.L.L.L.L.L.L.L.L.L.L.L.L.L.L.L.L.",
"L.L.L.L.L.L.L.L.L.L.L.L.L.L.L.L.L.L.L.L.L.L.L.L.L.L.L.L.L.L.L.L.L.L.L.L.L.L.L.L.L.L.L.L.L.L.L.L.L.L.L.L.L.L.L.L.L.L.L.L.L.L.L.L.",
"L.L.L.L.L.L.L.L.L.L.L.L.L.L.L.L.L.L.L.L.L.L.L.L.L.L.L.L.L.L.L.L.L.L.L.L.L.L.L.L.L.L.L.L.L.L.L.L.L.L.L.L.L.L.L.L.L.L.L.L.L.L.L.L.",
"L.L.L.L.L.L.L.L.L.L.L.L.L.L.L.L.L.L.L.L.L.L.L.L.L.L.L.L.L.L.L.L.L.L.L.L.L.L.L.L.L.L.L.L.L.L.L.L.L.L.L.L.L.L.L.L.L.L.L.L.L.L.L.L."
};
