/* XPM */
static char *next[] = {
/* columns rows colors chars-per-pixel */
"64 64 145 2 ",
"   c black",
".  c #010101",
"X  c #020202",
"o  c gray1",
"O  c #040404",
"+  c gray2",
"@  c #060606",
"#  c #0B0B0B",
"$  c #0C0C0C",
"%  c gray5",
"&  c #0E0E0E",
"*  c gray6",
"=  c #101010",
"-  c gray7",
";  c gray8",
":  c #151515",
">  c gray9",
",  c #181818",
"<  c gray10",
"1  c gray11",
"2  c #1D1D1D",
"3  c gray12",
"4  c gray13",
"5  c #222222",
"6  c gray15",
"7  c #272727",
"8  c #282828",
"9  c #2A2A2A",
"0  c #2C2C2C",
"q  c #2F2F2F",
"w  c #323232",
"e  c gray20",
"r  c #343434",
"t  c #353535",
"y  c #373737",
"u  c gray22",
"i  c #393939",
"p  c gray24",
"a  c #414141",
"s  c #444444",
"d  c gray27",
"f  c #464646",
"g  c gray28",
"h  c #484848",
"j  c #494949",
"k  c gray31",
"l  c #505050",
"z  c #515151",
"x  c #535353",
"c  c #555555",
"v  c gray34",
"b  c #585858",
"n  c gray35",
"m  c #5B5B5B",
"M  c #5D5D5D",
"N  c gray37",
"B  c #5F5F5F",
"V  c #646464",
"C  c #656565",
"Z  c gray40",
"A  c #686868",
"S  c gray42",
"D  c #6D6D6D",
"F  c gray43",
"G  c #6F6F6F",
"H  c #727272",
"J  c gray45",
"K  c #747474",
"L  c gray46",
"P  c #797979",
"I  c gray48",
"U  c gray49",
"Y  c gray50",
"T  c #808080",
"R  c #818181",
"E  c #838383",
"W  c gray53",
"Q  c #888888",
"!  c gray54",
"~  c #8D8D8D",
"^  c gray57",
"/  c gray59",
"(  c #979797",
")  c gray61",
"_  c #9F9F9F",
"`  c #A2A2A2",
"'  c gray64",
"]  c #A5A5A5",
"[  c gray66",
"{  c #A9A9A9",
"}  c #AAAAAA",
"|  c gray67",
" . c gray68",
".. c #AEAEAE",
"X. c #AFAFAF",
"o. c gray69",
"O. c gray70",
"+. c #B4B4B4",
"@. c #B7B7B7",
"#. c #B9B9B9",
"$. c gray73",
"%. c #BBBBBB",
"&. c gray74",
"*. c gray75",
"=. c gray76",
"-. c #C3C3C3",
";. c gray78",
":. c #C8C8C8",
">. c gray79",
",. c #CACACA",
"<. c #CBCBCB",
"1. c #CDCDCD",
"2. c #D0D0D0",
"3. c LightGray",
"4. c gray83",
"5. c #D5D5D5",
"6. c gray84",
"7. c #D7D7D7",
"8. c #D8D8D8",
"9. c #DADADA",
"0. c gray86",
"q. c gainsboro",
"w. c #DDDDDD",
"e. c #DFDFDF",
"r. c gray88",
"t. c #E2E2E2",
"y. c #E4E4E4",
"u. c gray90",
"i. c #E9E9E9",
"p. c #EAEAEA",
"a. c gray92",
"s. c gray93",
"d. c #EEEEEE",
"f. c #EFEFEF",
"g. c #F1F1F1",
"h. c #F3F3F3",
"j. c gray96",
"k. c gray97",
"l. c #F9F9F9",
"z. c gray98",
"x. c gray99",
"c. c #FDFDFD",
"v. c #FEFEFE",
"b. c white",
"n. c None",
/* pixels */
"n.n.n.n.n.n.n.n.n.n.n.n.n.n.n.n.n.n.n.n.n.n.n.n.n.n.n.n.n.n.n.n.n.n.n.n.n.n.n.n.n.n.n.n.n.n.n.n.n.n.n.n.n.n.n.n.n.n.n.n.n.n.n.n.",
"n.n.n.n.n.n.n.n.n.n.n.n.n.n.n.n.n.n.n.n.n.n.n.n.n.n.n.n.n.n.n.n.n.n.n.n.n.n.n.n.n.n.n.n.n.n.n.n.n.n.n.n.n.n.n.n.n.n.n.n.n.n.n.n.",
"n.n.n.n.n.n.n.n.                                                                                                n.n.n.n.n.n.n.n.",
"n.n.n.n.n.n.n.n.                                                                                                n.n.n.n.n.n.n.n.",
"n.n.n.n.n.n.n.n.    w l l a     h l l 0       a l l l l l l O   ; l k k u   r l k a     8 l l l l l l l l 5     n.n.n.n.n.n.n.n.",
"n.n.n.n.n.n.n.n.    ` b.b.b.;   r.b.b.~       2.b.b.b.b.b.b.&   5 b.b.b.2.  :.b.b.X.    ! b.b.b.b.b.b.b.b.G     n.n.n.n.n.n.n.n.",
"n.n.n.n.n.n.n.n.    ` b.b.b.V   r.b.b.~       2.b.b.b.b.b.b.&     i.b.b.b.& k.b.b.I     ! b.b.b.b.b.b.b.b.H     n.n.n.n.n.n.n.n.",
"n.n.n.n.n.n.n.n.    ` b.b.b.@.  r.b.b.~       2.b.b.b.y.8.8.&     o.b.b.b.A b.b.b.f     H 7.8.b.b.b.b.8.8.M     n.n.n.n.n.n.n.n.",
"n.n.n.n.n.n.n.n.    ` b.b.b.z.= r.b.b.~       2.b.b.b.l           Y b.b.b.1.b.b.b.=         , b.b.b.b.          n.n.n.n.n.n.n.n.",
"n.n.n.n.n.n.n.n.    ` b.b.b.b.M r.b.b.~       2.b.b.b.l           h b.b.b.b.b.b.8.          , b.b.b.b.          n.n.n.n.n.n.n.n.",
"n.n.n.n.n.n.n.n.    ` b.b.b.b.o.r.b.b.~       2.b.b.b.A 8 5       & b.b.b.b.b.b.}           , b.b.b.b.          n.n.n.n.n.n.n.n.",
"n.n.n.n.n.n.n.n.    ` b.b.b.b.k.s.b.b.~       2.b.b.b.b.b.e.        e.b.b.b.b.b.I           , b.b.b.b.          n.n.n.n.n.n.n.n.",
"n.n.n.n.n.n.n.n.    ` b.b.b.b.b.b.b.b.~       2.b.b.b.b.b.e.        g.b.b.b.b.b.)           , b.b.b.b.          n.n.n.n.n.n.n.n.",
"n.n.n.n.n.n.n.n.    ` b.b.s.b.b.b.b.b.~       2.b.b.b.i.r.=.      2 b.b.b.b.b.b.e.          , b.b.b.b.          n.n.n.n.n.n.n.n.",
"n.n.n.n.n.n.n.n.    ` b.b.1.7.b.b.b.b.~       2.b.b.b.k           h b.b.b.b.b.b.b.,         , b.b.b.b.          n.n.n.n.n.n.n.n.",
"n.n.n.n.n.n.n.n.    ` b.b.1.! b.b.b.b.~       2.b.b.b.k           K b.b.b.&.b.b.b.v         , b.b.b.b.          n.n.n.n.n.n.n.n.",
"n.n.n.n.n.n.n.n.    ` b.b.1.p b.b.b.b.~       2.b.b.b.k           ` b.b.b.V b.b.b.(         , b.b.b.b.          n.n.n.n.n.n.n.n.",
"n.n.n.n.n.n.n.n.    ` b.b.1.O s.b.b.b.~       2.b.b.b.=.] } r     :.b.b.b.7 y.b.b.7.        , b.b.b.b.          n.n.n.n.n.n.n.n.",
"n.n.n.n.n.n.n.n.    ` b.b.1.  ` b.b.b.~       2.b.b.b.b.b.b.k     k.b.b.b.O X.b.b.b.;       , b.b.b.b.          n.n.n.n.n.n.n.n.",
"n.n.n.n.n.n.n.n.    ` b.b.1.  v b.b.b.~       2.b.b.b.b.b.b.k   5 b.b.b.8.  K b.b.b.l       ; b.b.b.b.          n.n.n.n.n.n.n.n.",
"n.n.n.n.n.n.n.n.    l R R V   & Y R R f       A R Y R R R R 7   5 R Y R M   7 R R R a       & R R Y Y           n.n.n.n.n.n.n.n.",
"n.n.n.n.n.n.n.n.                                                                                                n.n.n.n.n.n.n.n.",
"n.n.n.n.n.n.n.n.                                                                                                n.n.n.n.n.n.n.n.",
"n.n.n.n.n.n.n.n.n.n.n.n.n.n.n.n.n.n.n.n.n.n.n.n.n.n.n.n.n.n.n.n.n.n.n.n.n.n.n.n.n.n.n.n.n.n.n.n.n.n.n.n.n.n.n.n.n.n.n.n.n.n.n.n.",
"n.n.n.n.n.n.n.n.n.n.n.n.n.n.n.n.n.n.n.n.n.n.n.n.n.n.n.n.n.n.n.n.n.n.n.n.n.n.n.n.n.n.n.n.n.n.n.n.n.n.n.n.n.n.n.n.n.n.n.n.n.n.n.n.",
"n.n.n.n.n.n.n.n.n.n.n.n.n.n.n.n.n.n.n.n.n.n.n.                                    n.n.n.n.n.n.n.n.n.n.n.n.n.n.n.n.n.n.n.n.n.n.n.",
"n.n.n.n.n.n.n.n.n.n.n.n.n.n.n.n.n.n.n.n.n.n.n.  w f f h f h f f f f h f h f h O   n.n.n.n.n.n.n.n.n.n.n.n.n.n.n.n.n.n.n.n.n.n.n.",
"n.n.n.n.n.n.n.n.n.n.n.n.n.n.n.n.n.n.n.n.n.n.n.  } b.b.b.b.b.b.b.b.b.b.b.b.b.b.,   n.n.n.n.n.n.n.n.n.n.n.n.n.n.n.n.n.n.n.n.n.n.n.",
"n.n.n.n.n.n.n.n.n.n.n.n.n.n.n.n.n.n.n.n.n.n.n.  X.b.b.b.b.b.b.b.b.b.b.b.b.b.b.;   n.n.n.n.n.n.n.n.n.n.n.n.n.n.n.n.n.n.n.n.n.n.n.",
"n.n.n.n.n.n.n.n.n.n.n.n.n.n.n.n.n.n.n.n.n.n.    @.b.b.b.b.b.b.b.b.b.b.b.b.b.b.,   n.n.n.n.n.n.n.n.n.n.n.n.n.n.n.n.n.n.n.n.n.n.n.",
"n.n.n.n.n.n.n.n.n.n.n.n.n.n.n.n.n.n.n.n.n.n.    @.b.b.b.b.b.b.b.b.b.b.b.b.b.b.;   n.n.n.n.n.n.n.n.n.n.n.n.n.n.n.n.n.n.n.n.n.n.n.",
"n.n.n.n.n.n.n.n.n.n.n.n.n.n.n.n.n.n.n.n.n.n.    &.b.b.b.b.b.b.b.b.b.b.b.b.b.b.,   n.n.n.n.n.n.n.n.n.n.n.n.n.n.n.n.n.n.n.n.n.n.n.",
"n.n.n.n.n.n.n.n.n.n.n.n.n.n.n.n.n.n.n.n.n.n.    =.b.b.b.b.b.b.b.b.b.b.b.b.b.b.;   n.n.n.n.n.n.n.n.n.n.n.n.n.n.n.n.n.n.n.n.n.n.n.",
"n.n.n.n.n.n.n.n.n.n.n.n.n.n.n.n.n.n.n.n.n.n.    ;.b.b.b.b.b.b.b.b.b.b.b.b.b.b.,   n.n.n.n.n.n.n.n.n.n.n.n.n.n.n.n.n.n.n.n.n.n.n.",
"n.n.n.n.n.n.n.n.n.n.n.n.n.n.n.n.n.n.n.n.n.n.    :.b.b.b.b.b.b.b.b.b.b.b.b.b.b.;   n.n.n.n.n.n.n.n.n.n.n.n.n.n.n.n.n.n.n.n.n.n.n.",
"n.n.n.n.n.n.n.n.n.n.n.n.n.n.n.n.n.n.n.n.n.n.    2.b.b.b.b.b.b.b.b.b.b.b.b.b.b.,   n.n.n.n.n.n.n.n.n.n.n.n.n.n.n.n.n.n.n.n.n.n.n.",
"n.n.n.n.n.n.n.n.n.n.                            7.b.b.b.b.b.b.b.b.b.b.b.b.b.b.;                             n.n.n.n.n.n.n.n.n.n.",
"n.n.n.n.n.n.n.n.n.n.                            7.b.b.b.b.b.b.b.b.b.b.b.b.b.b.,                           n.n.n.n.n.n.n.n.n.n.n.",
"n.n.n.n.n.n.n.n.n.n.n.    a i.g.g.s.s.g.s.g.s.s.b.b.b.b.b.b.b.b.b.b.b.b.b.b.b.g.s.g.g.s.s.g.s.g.s.e.5     n.n.n.n.n.n.n.n.n.n.n.",
"n.n.n.n.n.n.n.n.n.n.n.n.    V b.b.b.b.b.b.b.b.b.b.b.b.b.b.b.b.b.b.b.b.b.b.b.b.b.b.b.b.b.b.b.b.b.k.u     n.n.n.n.n.n.n.n.n.n.n.n.",
"n.n.n.n.n.n.n.n.n.n.n.n.n.    K b.b.b.b.b.b.b.b.b.b.b.b.b.b.b.b.b.b.b.b.b.b.b.b.b.b.b.b.b.b.b.z.h     n.n.n.n.n.n.n.n.n.n.n.n.n.",
"n.n.n.n.n.n.n.n.n.n.n.n.n.n.    W b.b.b.b.b.b.b.b.b.b.b.b.b.b.b.b.b.b.b.b.b.b.b.b.b.b.b.b.b.b.b     n.n.n.n.n.n.n.n.n.n.n.n.n.n.",
"n.n.n.n.n.n.n.n.n.n.n.n.n.n.n.    ) b.b.b.b.b.b.b.b.b.b.b.b.b.b.b.b.b.b.b.b.b.b.b.b.b.b.b.b.G     n.n.n.n.n.n.n.n.n.n.n.n.n.n.n.",
"n.n.n.n.n.n.n.n.n.n.n.n.n.n.n.n.  O X.b.b.b.b.b.b.b.b.b.b.b.b.b.b.b.b.b.b.b.b.b.b.b.b.b.b.R   O n.n.n.n.n.n.n.n.n.n.n.n.n.n.n.n.",
"n.n.n.n.n.n.n.n.n.n.n.n.n.n.n.n.n.  O =.b.b.b.b.b.b.b.b.b.b.b.b.b.b.b.b.b.b.b.b.b.b.b.b./     n.n.n.n.n.n.n.n.n.n.n.n.n.n.n.n.n.",
"n.n.n.n.n.n.n.n.n.n.n.n.n.n.n.n.n.n.  = 1.b.b.b.b.b.b.b.b.b.b.b.b.b.b.b.b.b.b.b.b.b.b.}     n.n.n.n.n.n.n.n.n.n.n.n.n.n.n.n.n.n.",
"n.n.n.n.n.n.n.n.n.n.n.n.n.n.n.n.n.n.n.  ; 8.b.b.b.b.b.b.b.b.b.b.b.b.b.b.b.b.b.b.b.b.$.O   n.n.n.n.n.n.n.n.n.n.n.n.n.n.n.n.n.n.n.",
"n.n.n.n.n.n.n.n.n.n.n.n.n.n.n.n.n.n.n.n.  2 y.b.b.b.b.b.b.b.b.b.b.b.b.b.b.b.b.b.b.:.#   n.n.n.n.n.n.n.n.n.n.n.n.n.n.n.n.n.n.n.n.",
"n.n.n.n.n.n.n.n.n.n.n.n.n.n.n.n.n.n.n.n.    0 g.b.b.b.b.b.b.b.b.b.b.b.b.b.b.b.b.7.=   n.n.n.n.n.n.n.n.n.n.n.n.n.n.n.n.n.n.n.n.n.",
"n.n.n.n.n.n.n.n.n.n.n.n.n.n.n.n.n.n.n.n.n.    u k.b.b.b.b.b.b.b.b.b.b.b.b.b.b.r.2   n.n.n.n.n.n.n.n.n.n.n.n.n.n.n.n.n.n.n.n.n.n.",
"n.n.n.n.n.n.n.n.n.n.n.n.n.n.n.n.n.n.n.n.n.n.    h z.b.b.b.b.b.b.b.b.b.b.b.b.s.8     n.n.n.n.n.n.n.n.n.n.n.n.n.n.n.n.n.n.n.n.n.n.",
"n.n.n.n.n.n.n.n.n.n.n.n.n.n.n.n.n.n.n.n.n.n.n.    b b.b.b.b.b.b.b.b.b.b.b.g.r     n.n.n.n.n.n.n.n.n.n.n.n.n.n.n.n.n.n.n.n.n.n.n.",
"n.n.n.n.n.n.n.n.n.n.n.n.n.n.n.n.n.n.n.n.n.n.n.n.    G b.b.b.b.b.b.b.b.b.z.a     n.n.n.n.n.n.n.n.n.n.n.n.n.n.n.n.n.n.n.n.n.n.n.n.",
"n.n.n.n.n.n.n.n.n.n.n.n.n.n.n.n.n.n.n.n.n.n.n.n.n.    W b.b.b.b.b.b.b.b.v     n.n.n.n.n.n.n.n.n.n.n.n.n.n.n.n.n.n.n.n.n.n.n.n.n.",
"n.n.n.n.n.n.n.n.n.n.n.n.n.n.n.n.n.n.n.n.n.n.n.n.n.n.    / b.b.b.b.b.b.V     n.n.n.n.n.n.n.n.n.n.n.n.n.n.n.n.n.n.n.n.n.n.n.n.n.n.",
"n.n.n.n.n.n.n.n.n.n.n.n.n.n.n.n.n.n.n.n.n.n.n.n.n.n.n.    } b.b.b.b.Y     n.n.n.n.n.n.n.n.n.n.n.n.n.n.n.n.n.n.n.n.n.n.n.n.n.n.n.",
"n.n.n.n.n.n.n.n.n.n.n.n.n.n.n.n.n.n.n.n.n.n.n.n.n.n.n.n.  O $.b.b.^     n.n.n.n.n.n.n.n.n.n.n.n.n.n.n.n.n.n.n.n.n.n.n.n.n.n.n.n.",
"n.n.n.n.n.n.n.n.n.n.n.n.n.n.n.n.n.n.n.n.n.n.n.n.n.n.n.n.n.  & 1.]     n.n.n.n.n.n.n.n.n.n.n.n.n.n.n.n.n.n.n.n.n.n.n.n.n.n.n.n.n.",
"n.n.n.n.n.n.n.n.n.n.n.n.n.n.n.n.n.n.n.n.n.n.n.n.n.n.n.n.n.n.  = O   n.n.n.n.n.n.n.n.n.n.n.n.n.n.n.n.n.n.n.n.n.n.n.n.n.n.n.n.n.n.",
"n.n.n.n.n.n.n.n.n.n.n.n.n.n.n.n.n.n.n.n.n.n.n.n.n.n.n.n.n.n.n.    n.n.n.n.n.n.n.n.n.n.n.n.n.n.n.n.n.n.n.n.n.n.n.n.n.n.n.n.n.n.n.",
"n.n.n.n.n.n.n.n.n.n.n.n.n.n.n.n.n.n.n.n.n.n.n.n.n.n.n.n.n.n.n.  n.n.n.n.n.n.n.n.n.n.n.n.n.n.n.n.n.n.n.n.n.n.n.n.n.n.n.n.n.n.n.n.",
"n.n.n.n.n.n.n.n.n.n.n.n.n.n.n.n.n.n.n.n.n.n.n.n.n.n.n.n.n.n.n.n.n.n.n.n.n.n.n.n.n.n.n.n.n.n.n.n.n.n.n.n.n.n.n.n.n.n.n.n.n.n.n.n.",
"n.n.n.n.n.n.n.n.n.n.n.n.n.n.n.n.n.n.n.n.n.n.n.n.n.n.n.n.n.n.n.n.n.n.n.n.n.n.n.n.n.n.n.n.n.n.n.n.n.n.n.n.n.n.n.n.n.n.n.n.n.n.n.n.",
"n.n.n.n.n.n.n.n.n.n.n.n.n.n.n.n.n.n.n.n.n.n.n.n.n.n.n.n.n.n.n.n.n.n.n.n.n.n.n.n.n.n.n.n.n.n.n.n.n.n.n.n.n.n.n.n.n.n.n.n.n.n.n.n."
};
