/* XPM */
static char *pagedown[] = {
/* columns rows colors chars-per-pixel */
"64 64 183 2 ",
"   c black",
".  c #010101",
"X  c #020202",
"o  c gray1",
"O  c #040404",
"+  c gray2",
"@  c #060606",
"#  c #070707",
"$  c gray3",
"%  c #0B0B0B",
"&  c #0C0C0C",
"*  c gray5",
"=  c #101010",
"-  c #111111",
";  c gray7",
":  c #131313",
">  c #161616",
",  c gray9",
"<  c #181818",
"1  c #191919",
"2  c gray10",
"3  c #1B1B1B",
"4  c #1E1E1E",
"5  c gray12",
"6  c #202020",
"7  c gray13",
"8  c #222222",
"9  c #232323",
"0  c #272727",
"q  c #282828",
"w  c gray16",
"e  c #2A2A2A",
"r  c gray17",
"t  c #2C2C2C",
"y  c gray18",
"u  c #313131",
"i  c #323232",
"p  c gray20",
"a  c #343434",
"s  c #353535",
"d  c #373737",
"f  c gray22",
"g  c #3A3A3A",
"h  c #3C3C3C",
"j  c gray24",
"k  c #3E3E3E",
"l  c #3F3F3F",
"z  c gray25",
"x  c #414141",
"c  c #434343",
"v  c gray27",
"b  c #464646",
"n  c gray28",
"m  c #494949",
"M  c #4B4B4B",
"N  c #4C4C4C",
"B  c #4E4E4E",
"V  c gray32",
"C  c #555555",
"Z  c #585858",
"A  c gray35",
"S  c #5D5D5D",
"D  c gray37",
"F  c #606060",
"G  c gray38",
"H  c #626262",
"J  c gray39",
"K  c #646464",
"L  c #656565",
"P  c gray40",
"I  c #676767",
"U  c #686868",
"Y  c #6C6C6C",
"T  c #6D6D6D",
"R  c gray43",
"E  c gray44",
"W  c #727272",
"Q  c #747474",
"!  c gray46",
"~  c #767676",
"^  c #777777",
"/  c gray47",
"(  c #797979",
")  c gray48",
"_  c #7C7C7C",
"`  c gray50",
"'  c #808080",
"]  c #818181",
"[  c #838383",
"{  c #848484",
"}  c gray52",
"|  c #868686",
" . c gray53",
".. c #888888",
"X. c #898989",
"o. c gray54",
"O. c #8D8D8D",
"+. c gray56",
"@. c #929292",
"#. c gray58",
"$. c #959595",
"%. c #979797",
"&. c gray60",
"*. c #9A9A9A",
"=. c gray62",
"-. c #A0A0A0",
";. c gray64",
":. c #A5A5A5",
">. c #A7A7A7",
",. c #A9A9A9",
"<. c gray67",
"1. c gray68",
"2. c #AEAEAE",
"3. c #AFAFAF",
"4. c gray69",
"5. c #B1B1B1",
"6. c #B2B2B2",
"7. c #B4B4B4",
"8. c #B7B7B7",
"9. c #B9B9B9",
"0. c #BBBBBB",
"q. c gray74",
"w. c gray",
"e. c gray75",
"r. c #C0C0C0",
"t. c gray76",
"y. c #C3C3C3",
"u. c gray77",
"i. c #C5C5C5",
"p. c gray78",
"a. c #C8C8C8",
"s. c gray79",
"d. c #CACACA",
"f. c #CBCBCB",
"g. c gray80",
"h. c #CDCDCD",
"j. c #CECECE",
"k. c #D0D0D0",
"l. c gray82",
"z. c #D2D2D2",
"x. c LightGray",
"c. c gray83",
"v. c #D5D5D5",
"b. c gray84",
"n. c #D7D7D7",
"m. c #D8D8D8",
"M. c gray86",
"N. c gainsboro",
"B. c #DDDDDD",
"V. c gray87",
"C. c #DFDFDF",
"Z. c #E1E1E1",
"A. c #E2E2E2",
"S. c gray89",
"D. c #E4E4E4",
"F. c gray90",
"G. c #E6E6E6",
"H. c #E7E7E7",
"J. c gray91",
"K. c #E9E9E9",
"L. c #EAEAEA",
"P. c gray92",
"I. c #ECECEC",
"U. c gray93",
"Y. c #EEEEEE",
"T. c #EFEFEF",
"R. c gray94",
"E. c #F1F1F1",
"W. c gray95",
"Q. c #F3F3F3",
"!. c #F4F4F4",
"~. c gray96",
"^. c #F6F6F6",
"/. c gray97",
"(. c #F8F8F8",
"). c #F9F9F9",
"_. c gray98",
"`. c #FBFBFB",
"'. c gray99",
"]. c #FDFDFD",
"[. c #FEFEFE",
"{. c white",
"}. c None",
/* pixels */
"}.}.}.}.}.}.}.}.}.}.}.}.}.}.}.}.}.}.}.}.}.}.}.}.}.}.}.}.}.}.}.}.}.}.}.}.}.}.}.}.}.}.}.}.}.}.}.}.}.}.}.}.}.}.}.}.}.}.}.}.}.}.}.}.",
"}.}.}.}.}.}.}.}.}.}.}.}.}.}.}.}.}.}.}.}.}.}.}.}.}.}.}.}.}.}.}.}.}.}.}.}.}.}.}.}.}.}.}.}.}.}.}.}.}.}.}.}.}.}.}.}.}.}.}.}.}.}.}.}.",
"}.}.}.}.}.}.}.}.}.}.}.}.}.}.}.}.}.}.}.}.}.}.}.}.}.}.}.}.}.}.}.}.}.}.}.}.}.}.}.}.}.}.}.}.}.}.}.}.}.}.}.}.}.}.}.}.}.}.}.}.}.}.}.}.",
"}.}.}.}.}.}.}.}.}.}.}.}.}.}.}.}.}.}.}.}.}.}.}.}.}.}.}.}.}.}.}.}.}.}.}.}.}.}.}.}.}.}.}.}.}.}.}.}.}.}.}.}.}.}.}.}.}.}.}.}.}.}.}.}.",
"}.}.                                                                                                                          }.",
"}.}.    y z l p >     p z z z O     * V A <     p z z z r < l l p 0 O       p U A >   r z l   p z z   y z f 6 z y   s l 4     }.",
"}.}.    0.{.{.{.{./   A.{.{.{.r   l `.{.{.{.G   u.{.{.{.>.G {.{.{.{.G.s   X.{.{.{.Y.s O.{.{.O n.{.{.- r.{.n.X.{.P.  x.{.T     }.",
"}.}.    0.{.^.0.{.Y.O {.{.{.{.V   x.{.n.4.{.`.  s.{.`.u.] G {.{.2.`.{.2.< {.{.;.P.{.4.T {.{.> Q.{.{.r A.{.8.X.{.{.l x.{.T     }.",
"}.}.    0.{.P.s {.{.0 {.{.G.{./   Y.{.,./ {.{.4 u.{.B.    G {.{.n A.{.r.f {.{.L u.{.n.V {.{.s {.{.{.z {.{.&.X.{.{.@.x.{.T     }.",
"}.}.    0.{.P.n {.{.n {.{.4.{.=.  `.{.,.l X.X.< s.{.P.z 6 G {.{.n A.{.h.l {.{.G u.{.B.s {.{.L {.{.{.W {.{.` X.{.{.A.x.{.T     }.",
"}.}.    0.{.{.^.{.B.U {.^.} {.u.  {.{.,.~ ] ` > s.{.{.{.@.G {.{.n A.{.h.n {.{.G u.{.G.> {.{.@.{.`.{.&.{.{.S X.{.{.{.`.{.T     }.",
"}.}.    0.{.{.B.8.z X.{.n.T {.P.  {.{.,.Y.{.{.p s.{.^.4.G G {.{.n A.{.h.n {.{.G u.{.A.  `.{.r.{.q.{.r.{.{.z X.{.Y.{.{.{.T     }.",
"}.}.    0.{.P.      ,.{.P.u.{.{.- {.{.,.T {.{.y u.{.B.    G {.{.n A.{.h.l {.{.G u.{.B.  M.{.Q.{.~ {.P.{.{.6 O.{.4.Q.{.{.T     }.",
"}.}.    0.{.Y.      h.{.{.{.{.{.s Q.{.2.T {.{.p s.{.A.- * G {.{.n Q.{.u.f {.{.U h.{.n.  q.{.{.{.s Q.{.{.{.O X.{.2.,.{.{.T     }.",
"}.}.    0.{.Y.      Y.{.s.C {.{.S u.{.P.x.{.{.p s.{.{.{.n.G {.{.G.{.{.2.* Q.{.u.^.{.&.  ;.{.{.{.- h.{.{.P.  X.{.2.S {.{.T     }.",
"}.}.    0.{.P.    - {.{.,.r {.{.] p G.{.A.q.{.p u.{.{.{.n.G {.{.{.^.n.s   B Y.{.{.u.<   ] {.{.Y.  >.{.{.s.  X.{.2.> {.{.T     }.",
"}.}.                                  r O                                     0 >                                             }.",
"}.}.                                                                                                                          }.",
"}.}.}.}.}.}.}.}.}.}.}.}.}.}.}.}.}.}.}.}.}.}.}.}.}.}.}.}.}.}.}.}.}.}.}.}.}.}.}.}.}.}.}.}.}.}.}.}.}.}.}.}.}.}.}.}.}.}.}.}.}.}.}.}.",
"}.}.}.}.}.}.}.}.}.}.}.}.}.}.}.}.}.}.}.}.}.}.}.}.}.}.}.}.}.}.}.}.}.}.}.}.}.}.}.}.}.}.}.}.}.}.}.}.}.}.}.}.}.}.}.}.}.}.}.}.}.}.}.}.",
"}.}.}.}.}.}.}.}.}.}.}.}.}.}.}.}.}.}.}.}.}.}.}.}.}.}.}.}.}.}.}.}.}.}.}.}.}.}.}.}.}.}.}.}.}.}.}.}.}.}.}.}.}.}.}.}.}.}.}.}.}.}.}.}.",
"}.}.}.}.}.}.}.}.}.}.}.}.}.                                                                              }.}.}.}.}.}.}.}.}.}.}.}.",
"}.}.}.}.}.}.}.}.}.}.}.}.}.}.    r } } X.X.} X.} } X.X.} } X.} } X.} X.X.} X.X.} X.} X.} } } } ` $     }.}.}.}.}.}.}.}.}.}.}.}.}.",
"}.}.}.}.}.}.}.}.}.}.}.}.}.}.}.    &.{.{.{.{.{.{.{.{.{.{.{.{.{.{.{.{.{.{.{.{.{.{.{.{.{.{.{.{.{.B     }.}.}.}.}.}.}.}.}.}.}.}.}.}.",
"}.}.}.}.}.}.}.}.}.}.}.}.}.}.}.}.    >.{.{.{.{.{.{.{.{.{.{.{.{.{.{.{.{.{.{.{.{.{.{.{.{.{.{.{.A     }.}.}.}.}.}.}.}.}.}.}.}.}.}.}.",
"}.}.}.}.}.}.}.}.}.}.}.}.}.}.}.}.}.  O 4.{.{.{.{.{.{.{.{.{.{.{.{.{.{.{.{.{.{.{.{.{.{.{.{.{.L     }.}.}.}.}.}.}.}.}.}.}.}.}.}.}.}.",
"}.}.}.}.}.}.}.}.}.}.}.}.}.}.}.}.}.}.  $ r.{.{.{.{.{.{.{.{.{.{.{.{.{.{.{.{.{.{.{.{.{.{.{.~     }.}.}.}.}.}.}.}.}.}.}.}.}.}.}.}.}.",
"}.}.}.}.}.}.}.}.}.}.}.}.}.}.}.}.}.}.}.  $ s.{.{.{.{.{.{.{.{.{.{.{.{.{.{.{.{.{.{.{.{.{.}     }.}.}.}.}.}.}.}.}.}.}.}.}.}.}.}.}.}.",
"}.}.}.}.}.}.}.}.}.}.}.}.}.}.}.}.}.}.}.}.  - x.{.{.{.{.{.{.{.{.{.{.{.{.{.{.{.{.{.{.{.$.    }.}.}.}.}.}.}.}.}.}.}.}.}.}.}.}.}.}.}.",
"}.}.}.}.}.}.}.}.}.}.}.}.}.}.}.}.}.}.}.}.}.  < B.{.{.{.{.{.{.{.{.{.{.{.{.{.{.{.{.{.;.    }.}.}.}.}.}.}.}.}.}.}.}.}.}.}.}.}.}.}.}.",
"}.}.}.}.}.}.}.}.}.}.}.}.}.}.}.}.}.}.}.}.}.}.  6 G.{.{.{.{.{.{.{.{.{.{.{.{.{.{.{.4.O   }.}.}.}.}.}.}.}.}.}.}.}.}.}.}.}.}.}.}.}.}.",
"}.}.}.}.}.}.}.}.}.}.}.}.}.}.}.}.}.}.}.}.}.}.    r P.{.{.{.{.{.{.{.{.{.{.{.{.{.q.$   }.}.}.}.}.}.}.}.}.}.}.}.}.}.}.}.}.}.}.}.}.}.",
"}.}.}.}.}.}.}.}.}.}.}.}.}.}.}.}.}.}.}.}.}.}.}.    p Q.{.{.{.{.{.{.{.{.{.{.{.u.*   }.}.}.}.}.}.}.}.}.}.}.}.}.}.}.}.}.}.}.}.}.}.}.",
"}.}.}.}.}.}.}.}.}.}.}.}.}.}.}.}.}.}.}.}.}.}.}.}.    l ^.{.{.{.{.{.{.{.{.{.x.-   }.}.}.}.}.}.}.}.}.}.}.}.}.}.}.}.}.}.}.}.}.}.}.}.",
"}.}.}.}.}.}.}.}.}.}.}.}.}.}.}.}.}.}.}.}.}.}.}.}.}.    m `.{.{.{.{.{.{.{.B.>   }.}.}.}.}.}.}.}.}.}.}.}.}.}.}.}.}.}.}.}.}.}.}.}.}.",
"}.}.}.}.}.}.}.}.}.}.}.}.}.}.}.}.}.}.}.}.}.}.}.}.}.}.    V {.{.{.{.{.{.A.4   }.}.}.}.}.}.}.}.}.}.}.}.}.}.}.}.}.}.}.}.}.}.}.}.}.}.",
"}.}.}.}.}.}.}.}.}.}.}.}.}.}.}.}.}.}.}.}.}.}.}.}.}.}.}.    L {.{.{.{.P.0     }.}.}.}.}.}.}.}.}.}.}.}.}.}.}.}.}.}.}.}.}.}.}.}.}.}.",
"}.}.}.}.}.}.}.}.}.}.}.}.}.}.}.}.}.}.}.}.}.}.}.}.}.}.}.}.    W {.{.Y.p     }.}.}.}.}.}.}.}.}.}.}.}.}.}.}.}.}.}.}.}.}.}.}.}.}.}.}.",
"}.}.}.}.}.}.}.}.}.}.}.}.}.}.}.}.}.}.}.}.}.}.}.}.}.}.}.}.}.    ] ^.f     }.}.}.}.}.}.}.}.}.}.}.}.}.}.}.}.}.}.}.}.}.}.}.}.}.}.}.}.",
"}.}.}.}.}.}.}.}.}.}.}.}.}.                                                                              }.}.}.}.}.}.}.}.}.}.}.}.",
"}.}.}.}.}.}.}.}.}.}.}.}.}.}.    - r 0 0 0 0 0 0 0 0 0 0 0 0 0 0 r 0 0 0 0 0 0 0 0 0 0 0 0 0 0 r O     }.}.}.}.}.}.}.}.}.}.}.}.}.",
"}.}.}.}.}.}.}.}.}.}.}.}.}.}.}.  - n.{.{.{.{.{.{.{.{.{.{.{.{.{.{.{.{.{.{.{.{.{.{.{.{.{.{.{.{.{.$.    }.}.}.}.}.}.}.}.}.}.}.}.}.}.",
"}.}.}.}.}.}.}.}.}.}.}.}.}.}.}.}.  < B.{.{.{.{.{.{.{.{.{.{.{.{.{.{.{.{.{.{.{.{.{.{.{.{.{.{.{.,.O   }.}.}.}.}.}.}.}.}.}.}.}.}.}.}.",
"}.}.}.}.}.}.}.}.}.}.}.}.}.}.}.}.    6 P.{.{.{.{.{.{.{.{.{.{.{.{.{.{.{.{.{.{.{.{.{.{.{.{.{.8.O   }.}.}.}.}.}.}.}.}.}.}.}.}.}.}.}.",
"}.}.}.}.}.}.}.}.}.}.}.}.}.}.}.}.}.    r Y.{.{.{.{.{.{.{.{.{.{.{.{.{.{.{.{.{.{.{.{.{.{.{.r.O   }.}.}.}.}.}.}.}.}.}.}.}.}.}.}.}.}.",
"}.}.}.}.}.}.}.}.}.}.}.}.}.}.}.}.}.}.    s Q.{.{.{.{.{.{.{.{.{.{.{.{.{.{.{.{.{.{.{.{.{.h.*   }.}.}.}.}.}.}.}.}.}.}.}.}.}.}.}.}.}.",
"}.}.}.}.}.}.}.}.}.}.}.}.}.}.}.}.}.}.}.    z ^.{.{.{.{.{.{.{.{.{.{.{.{.{.{.{.{.{.{.{.x.-   }.}.}.}.}.}.}.}.}.}.}.}.}.}.}.}.}.}.}.",
"}.}.}.}.}.}.}.}.}.}.}.}.}.}.}.}.}.}.}.}.    m `.{.{.{.{.{.{.{.{.{.{.{.{.{.{.{.{.{.B.<   }.}.}.}.}.}.}.}.}.}.}.}.}.}.}.}.}.}.}.}.",
"}.}.}.}.}.}.}.}.}.}.}.}.}.}.}.}.}.}.}.}.}.    A {.{.{.{.{.{.{.{.{.{.{.{.{.{.{.{.P.6   }.}.}.}.}.}.}.}.}.}.}.}.}.}.}.}.}.}.}.}.}.",
"}.}.}.}.}.}.}.}.}.}.}.}.}.}.}.}.}.}.}.}.}.}.    L {.{.{.{.{.{.{.{.{.{.{.{.{.{.Y.r     }.}.}.}.}.}.}.}.}.}.}.}.}.}.}.}.}.}.}.}.}.",
"}.}.}.}.}.}.}.}.}.}.}.}.}.}.}.}.}.}.}.}.}.}.}.    ~ {.{.{.{.{.{.{.{.{.{.{.{.Q.p     }.}.}.}.}.}.}.}.}.}.}.}.}.}.}.}.}.}.}.}.}.}.",
"}.}.}.}.}.}.}.}.}.}.}.}.}.}.}.}.}.}.}.}.}.}.}.}.    } {.{.{.{.{.{.{.{.{.{.^.l     }.}.}.}.}.}.}.}.}.}.}.}.}.}.}.}.}.}.}.}.}.}.}.",
"}.}.}.}.}.}.}.}.}.}.}.}.}.}.}.}.}.}.}.}.}.}.}.}.}.    $.{.{.{.{.{.{.{.{.`.m     }.}.}.}.}.}.}.}.}.}.}.}.}.}.}.}.}.}.}.}.}.}.}.}.",
"}.}.}.}.}.}.}.}.}.}.}.}.}.}.}.}.}.}.}.}.}.}.}.}.}.}.O   ;.{.{.{.{.{.{.{.A     }.}.}.}.}.}.}.}.}.}.}.}.}.}.}.}.}.}.}.}.}.}.}.}.}.",
"}.}.}.}.}.}.}.}.}.}.}.}.}.}.}.}.}.}.}.}.}.}.}.}.}.}.}.    4.{.{.{.{.{.G     }.}.}.}.}.}.}.}.}.}.}.}.}.}.}.}.}.}.}.}.}.}.}.}.}.}.",
"}.}.}.}.}.}.}.}.}.}.}.}.}.}.}.}.}.}.}.}.}.}.}.}.}.}.}.}.  $ q.{.{.{.~     }.}.}.}.}.}.}.}.}.}.}.}.}.}.}.}.}.}.}.}.}.}.}.}.}.}.}.",
"}.}.}.}.}.}.}.}.}.}.}.}.}.}.}.}.}.}.}.}.}.}.}.}.}.}.}.}.}.  * s.{.]     }.}.}.}.}.}.}.}.}.}.}.}.}.}.}.}.}.}.}.}.}.}.}.}.}.}.}.}.",
"}.}.}.}.}.}.}.}.}.}.}.}.}.}.}.}.}.}.}.}.}.}.}.}.}.}.}.}.}.}.  - ~     }.}.}.}.}.}.}.}.}.}.}.}.}.}.}.}.}.}.}.}.}.}.}.}.}.}.}.}.}.",
"}.}.}.}.}.}.}.}.}.}.}.}.}.}.}.}.}.}.}.}.}.}.}.}.}.}.}.}.}.}.}.      }.}.}.}.}.}.}.}.}.}.}.}.}.}.}.}.}.}.}.}.}.}.}.}.}.}.}.}.}.}.",
"}.}.}.}.}.}.}.}.}.}.}.}.}.}.}.}.}.}.}.}.}.}.}.}.}.}.}.}.}.}.}.}.  }.}.}.}.}.}.}.}.}.}.}.}.}.}.}.}.}.}.}.}.}.}.}.}.}.}.}.}.}.}.}.",
"}.}.}.}.}.}.}.}.}.}.}.}.}.}.}.}.}.}.}.}.}.}.}.}.}.}.}.}.}.}.}.}.}.}.}.}.}.}.}.}.}.}.}.}.}.}.}.}.}.}.}.}.}.}.}.}.}.}.}.}.}.}.}.}.",
"}.}.}.}.}.}.}.}.}.}.}.}.}.}.}.}.}.}.}.}.}.}.}.}.}.}.}.}.}.}.}.}.}.}.}.}.}.}.}.}.}.}.}.}.}.}.}.}.}.}.}.}.}.}.}.}.}.}.}.}.}.}.}.}.",
"}.}.}.}.}.}.}.}.}.}.}.}.}.}.}.}.}.}.}.}.}.}.}.}.}.}.}.}.}.}.}.}.}.}.}.}.}.}.}.}.}.}.}.}.}.}.}.}.}.}.}.}.}.}.}.}.}.}.}.}.}.}.}.}.",
"}.}.}.}.}.}.}.}.}.}.}.}.}.}.}.}.}.}.}.}.}.}.}.}.}.}.}.}.}.}.}.}.}.}.}.}.}.}.}.}.}.}.}.}.}.}.}.}.}.}.}.}.}.}.}.}.}.}.}.}.}.}.}.}."
};
