/* XPM */
static char *pageup[] = {
/* columns rows colors chars-per-pixel */
"64 64 164 2 ",
"   c black",
".  c #010101",
"X  c #020202",
"o  c gray1",
"O  c #040404",
"+  c gray2",
"@  c #060606",
"#  c gray3",
"$  c gray4",
"%  c #0B0B0B",
"&  c #0C0C0C",
"*  c #0E0E0E",
"=  c gray6",
"-  c #101010",
";  c #131313",
":  c gray8",
">  c #151515",
",  c #161616",
"<  c gray9",
"1  c #181818",
"2  c #1B1B1B",
"3  c #1D1D1D",
"4  c #1E1E1E",
"5  c #202020",
"6  c gray13",
"7  c #232323",
"8  c gray14",
"9  c gray15",
"0  c #272727",
"q  c #282828",
"w  c gray16",
"e  c #2C2C2C",
"r  c gray18",
"t  c gray19",
"y  c #313131",
"u  c #323232",
"i  c gray21",
"p  c #373737",
"a  c #393939",
"s  c #3A3A3A",
"d  c gray23",
"f  c #3C3C3C",
"g  c #3E3E3E",
"h  c #3F3F3F",
"j  c gray25",
"k  c #414141",
"l  c #444444",
"z  c #464646",
"x  c gray28",
"c  c gray29",
"v  c gray30",
"b  c #505050",
"n  c gray32",
"m  c #535353",
"M  c gray33",
"N  c #555555",
"B  c #565656",
"V  c #585858",
"C  c gray35",
"Z  c #5A5A5A",
"A  c #5D5D5D",
"S  c #5F5F5F",
"D  c gray38",
"F  c gray39",
"G  c #646464",
"H  c gray40",
"J  c #676767",
"K  c #686868",
"L  c gray42",
"P  c #6F6F6F",
"I  c gray44",
"U  c #717171",
"Y  c gray45",
"T  c gray46",
"R  c #797979",
"E  c gray48",
"W  c #7C7C7C",
"Q  c gray49",
"!  c gray50",
"~  c gray51",
"^  c #848484",
"/  c gray53",
"(  c #888888",
")  c #898989",
"_  c gray55",
"`  c gray56",
"'  c gray57",
"]  c #929292",
"[  c #939393",
"{  c #959595",
"}  c gray59",
"|  c #979797",
" . c gray60",
".. c #9B9B9B",
"X. c #9D9D9D",
"o. c gray62",
"O. c #9F9F9F",
"+. c #A0A0A0",
"@. c gray63",
"#. c gray64",
"$. c #A4A4A4",
"%. c #A5A5A5",
"&. c gray65",
"*. c gray67",
"=. c #ACACAC",
"-. c #AEAEAE",
";. c #AFAFAF",
":. c gray69",
">. c #B1B1B1",
",. c gray71",
"<. c gray72",
"1. c gray73",
"2. c #BBBBBB",
"3. c gray74",
"4. c gray",
"5. c gray75",
"6. c #C0C0C0",
"7. c #C5C5C5",
"8. c #C6C6C6",
"9. c gray78",
"0. c #C8C8C8",
"q. c #CDCDCD",
"w. c #CECECE",
"e. c #D0D0D0",
"r. c gray82",
"t. c #D2D2D2",
"y. c LightGray",
"u. c gray83",
"i. c #D5D5D5",
"p. c gray84",
"a. c #D7D7D7",
"s. c #D8D8D8",
"d. c #DADADA",
"f. c gray86",
"g. c gainsboro",
"h. c gray87",
"j. c gray88",
"k. c #E1E1E1",
"l. c #E2E2E2",
"z. c gray89",
"x. c gray90",
"c. c #E7E7E7",
"v. c gray91",
"b. c #E9E9E9",
"n. c #EAEAEA",
"m. c gray93",
"M. c #EFEFEF",
"N. c gray94",
"B. c #F1F1F1",
"V. c gray95",
"C. c #F3F3F3",
"Z. c #F4F4F4",
"A. c gray96",
"S. c #F6F6F6",
"D. c gray97",
"F. c #F8F8F8",
"G. c #F9F9F9",
"H. c gray98",
"J. c #FBFBFB",
"K. c gray99",
"L. c #FDFDFD",
"P. c #FEFEFE",
"I. c white",
"U. c None",
/* pixels */
"U.U.U.U.U.U.U.U.U.U.U.U.U.U.U.U.U.U.U.U.U.U.U.U.U.U.U.U.U.U.U.U.U.U.U.U.U.U.U.U.U.U.U.U.U.U.U.U.U.U.U.U.U.U.U.U.U.U.U.U.U.U.U.U.",
"U.U.U.U.U.U.U.U.U.U.U.U.U.U.U.U.U.U.U.U.U.U.U.U.U.U.U.U.U.U.U.U.U.U.U.U.U.U.U.U.U.U.U.U.U.U.U.U.U.U.U.U.U.U.U.U.U.U.U.U.U.U.U.U.",
"U.U.U.U.U.U.U.U.U.U.U.U.U.U.U.U.U.U.U.U.U.U.U.U.U.U.U.U.U.U.U.U.  U.U.U.U.U.U.U.U.U.U.U.U.U.U.U.U.U.U.U.U.U.U.U.U.U.U.U.U.U.U.U.",
"U.U.U.U.U.U.U.U.U.U.U.U.U.U.U.U.U.U.U.U.U.U.U.U.U.U.U.U.U.U.U.      U.U.U.U.U.U.U.U.U.U.U.U.U.U.U.U.U.U.U.U.U.U.U.U.U.U.U.U.U.U.",
"U.U.U.U.U.U.U.U.U.U.U.U.U.U.U.U.U.U.U.U.U.U.U.U.U.U.U.U.U.U.  % q     U.U.U.U.U.U.U.U.U.U.U.U.U.U.U.U.U.U.U.U.U.U.U.U.U.U.U.U.U.",
"U.U.U.U.U.U.U.U.U.U.U.U.U.U.U.U.U.U.U.U.U.U.U.U.U.U.U.U.U.  O 1.b.q     U.U.U.U.U.U.U.U.U.U.U.U.U.U.U.U.U.U.U.U.U.U.U.U.U.U.U.U.",
"U.U.U.U.U.U.U.U.U.U.U.U.U.U.U.U.U.U.U.U.U.U.U.U.U.U.U.U.  O -.I.I.j.3   U.U.U.U.U.U.U.U.U.U.U.U.U.U.U.U.U.U.U.U.U.U.U.U.U.U.U.U.",
"U.U.U.U.U.U.U.U.U.U.U.U.U.U.U.U.U.U.U.U.U.U.U.U.U.U.U.    $.I.I.I.I.g.>   U.U.U.U.U.U.U.U.U.U.U.U.U.U.U.U.U.U.U.U.U.U.U.U.U.U.U.",
"U.U.U.U.U.U.U.U.U.U.U.U.U.U.U.U.U.U.U.U.U.U.U.U.U.U.    [ I.I.I.I.I.I.t.-   U.U.U.U.U.U.U.U.U.U.U.U.U.U.U.U.U.U.U.U.U.U.U.U.U.U.",
"U.U.U.U.U.U.U.U.U.U.U.U.U.U.U.U.U.U.U.U.U.U.U.U.U.    ^ I.I.I.I.I.I.I.I.0.%   U.U.U.U.U.U.U.U.U.U.U.U.U.U.U.U.U.U.U.U.U.U.U.U.U.",
"U.U.U.U.U.U.U.U.U.U.U.U.U.U.U.U.U.U.U.U.U.U.U.U.    T I.I.I.I.I.I.I.I.I.I.3.O   U.U.U.U.U.U.U.U.U.U.U.U.U.U.U.U.U.U.U.U.U.U.U.U.",
"U.U.U.U.U.U.U.U.U.U.U.U.U.U.U.U.U.U.U.U.U.U.U.    K I.I.I.I.I.I.I.I.I.I.I.I.>.O   U.U.U.U.U.U.U.U.U.U.U.U.U.U.U.U.U.U.U.U.U.U.U.",
"U.U.U.U.U.U.U.U.U.U.U.U.U.U.U.U.U.U.U.U.U.U.    Z I.I.I.I.I.I.I.I.I.I.I.I.I.I.$.    U.U.U.U.U.U.U.U.U.U.U.U.U.U.U.U.U.U.U.U.U.U.",
"U.U.U.U.U.U.U.U.U.U.U.U.U.U.U.U.U.U.U.U.U.    v G.I.I.I.I.I.I.I.I.I.I.I.I.I.I.I. .    U.U.U.U.U.U.U.U.U.U.U.U.U.U.U.U.U.U.U.U.U.",
"U.U.U.U.U.U.U.U.U.U.U.U.U.U.U.U.U.U.U.U.    k A.I.I.I.I.I.I.I.I.I.I.I.I.I.I.I.I.I.)     U.U.U.U.U.U.U.U.U.U.U.U.U.U.U.U.U.U.U.U.",
"U.U.U.U.U.U.U.U.U.U.U.U.U.U.U.U.U.U.U.    p V.I.I.I.I.I.I.I.I.I.I.I.I.I.I.I.I.I.I.I.R     U.U.U.U.U.U.U.U.U.U.U.U.U.U.U.U.U.U.U.",
"U.U.U.U.U.U.U.U.U.U.U.U.U.U.U.U.U.U.    e m.I.I.I.I.I.I.I.I.I.I.I.I.I.I.I.I.I.I.I.I.I.K     U.U.U.U.U.U.U.U.U.U.U.U.U.U.U.U.U.U.",
"U.U.U.U.U.U.U.U.U.U.U.U.U.U.U.U.U.    7 c.I.I.I.I.I.I.I.I.I.I.I.I.I.I.I.I.I.I.I.I.I.I.I.S     U.U.U.U.U.U.U.U.U.U.U.U.U.U.U.U.U.",
"U.U.U.U.U.U.U.U.U.U.U.U.U.U.U.U.U.  2 j.I.I.I.I.I.I.I.I.I.I.I.I.I.I.I.I.I.I.I.I.I.I.I.I.G.n     U.U.U.U.U.U.U.U.U.U.U.U.U.U.U.U.",
"U.U.U.U.U.U.U.U.U.U.U.U.U.U.U.U.  > a.I.I.I.I.I.I.I.I.I.I.I.I.I.I.I.I.I.I.I.I.I.I.I.I.I.I.G.k     U.U.U.U.U.U.U.U.U.U.U.U.U.U.U.",
"U.U.U.U.U.U.U.U.U.U.U.U.U.U.U.  * w.I.I.I.I.I.I.I.I.I.I.I.I.I.I.I.I.I.I.I.I.I.I.I.I.I.I.I.I.A.d     U.U.U.U.U.U.U.U.U.U.U.U.U.U.",
"U.U.U.U.U.U.U.U.U.U.U.U.U.U.    f P P P P P P P P P P P P P P P P P P P P P P P P P P P P P P S       U.U.U.U.U.U.U.U.U.U.U.U.U.",
"U.U.U.U.U.U.U.U.U.U.U.U.U.                                                                              U.U.U.U.U.U.U.U.U.U.U.U.",
"U.U.U.U.U.U.U.U.U.U.U.U.U.U.U.U.U.U.U.U.U.U.U.U.U.U.U.U.U.    n ) O   U.U.U.U.U.U.U.U.U.U.U.U.U.U.U.U.U.U.U.U.U.U.U.U.U.U.U.U.U.",
"U.U.U.U.U.U.U.U.U.U.U.U.U.U.U.U.U.U.U.U.U.U.U.U.U.U.U.U.    S I.I.*.    U.U.U.U.U.U.U.U.U.U.U.U.U.U.U.U.U.U.U.U.U.U.U.U.U.U.U.U.",
"U.U.U.U.U.U.U.U.U.U.U.U.U.U.U.U.U.U.U.U.U.U.U.U.U.U.U.    n I.I.I.I.o.    U.U.U.U.U.U.U.U.U.U.U.U.U.U.U.U.U.U.U.U.U.U.U.U.U.U.U.",
"U.U.U.U.U.U.U.U.U.U.U.U.U.U.U.U.U.U.U.U.U.U.U.U.U.U.    z G.I.I.I.I.I.`     U.U.U.U.U.U.U.U.U.U.U.U.U.U.U.U.U.U.U.U.U.U.U.U.U.U.",
"U.U.U.U.U.U.U.U.U.U.U.U.U.U.U.U.U.U.U.U.U.U.U.U.U.    d A.I.I.I.I.I.I.I.~   O U.U.U.U.U.U.U.U.U.U.U.U.U.U.U.U.U.U.U.U.U.U.U.U.U.",
"U.U.U.U.U.U.U.U.U.U.U.U.U.U.U.U.U.U.U.U.U.U.U.U.    t m.I.I.I.I.I.I.I.I.I.P     U.U.U.U.U.U.U.U.U.U.U.U.U.U.U.U.U.U.U.U.U.U.U.U.",
"U.U.U.U.U.U.U.U.U.U.U.U.U.U.U.U.U.U.U.U.U.U.U.    9 b.I.I.I.I.I.I.I.I.I.I.I.D     U.U.U.U.U.U.U.U.U.U.U.U.U.U.U.U.U.U.U.U.U.U.U.",
"U.U.U.U.U.U.U.U.U.U.U.U.U.U.U.U.U.U.U.U.U.U.U.  3 j.I.I.I.I.I.I.I.I.I.I.I.I.I.n     U.U.U.U.U.U.U.U.U.U.U.U.U.U.U.U.U.U.U.U.U.U.",
"U.U.U.U.U.U.U.U.U.U.U.U.U.U.U.U.U.U.U.U.U.U.  > d.I.I.I.I.I.I.I.I.I.I.I.I.I.I.G.c     U.U.U.U.U.U.U.U.U.U.U.U.U.U.U.U.U.U.U.U.U.",
"U.U.U.U.U.U.U.U.U.U.U.U.U.U.U.U.U.U.U.U.U.  * t.I.I.I.I.I.I.I.I.I.I.I.I.I.I.I.I.A.d     U.U.U.U.U.U.U.U.U.U.U.U.U.U.U.U.U.U.U.U.",
"U.U.U.U.U.U.U.U.U.U.U.U.U.U.U.U.U.U.U.U.  % 8.I.I.I.I.I.I.I.I.I.I.I.I.I.I.I.I.I.I.V.t     U.U.U.U.U.U.U.U.U.U.U.U.U.U.U.U.U.U.U.",
"U.U.U.U.U.U.U.U.U.U.U.U.U.U.U.U.U.U.U.  O 3.I.I.I.I.I.I.I.I.I.I.I.I.I.I.I.I.I.I.I.I.b.q     U.U.U.U.U.U.U.U.U.U.U.U.U.U.U.U.U.U.",
"U.U.U.U.U.U.U.U.U.U.U.U.U.U.U.U.U.U.    -.I.I.I.I.I.I.I.I.I.I.I.I.I.I.I.I.I.I.I.I.I.I.j.3   U.U.U.U.U.U.U.U.U.U.U.U.U.U.U.U.U.U.",
"U.U.U.U.U.U.U.U.U.U.U.U.U.U.U.U.U.    +.I.I.I.I.I.I.I.I.I.I.I.I.I.I.I.I.I.I.I.I.I.I.I.I.g.>   U.U.U.U.U.U.U.U.U.U.U.U.U.U.U.U.U.",
"U.U.U.U.U.U.U.U.U.U.U.U.U.U.U.U.O   | I.I.I.I.I.I.I.I.I.I.I.I.I.I.I.I.I.I.I.I.I.I.I.I.I.I.t.-   U.U.U.U.U.U.U.U.U.U.U.U.U.U.U.U.",
"U.U.U.U.U.U.U.U.U.U.U.U.U.U.U.    ^ I.I.I.I.I.I.I.I.I.I.I.I.I.I.I.I.I.I.I.I.I.I.I.I.I.I.I.I.0.%   U.U.U.U.U.U.U.U.U.U.U.U.U.U.U.",
"U.U.U.U.U.U.U.U.U.U.U.U.U.U.    z 8.8.8.8.0.8.0.8.8.0.8.8.0.8.8.0.8.8.0.8.0.8.8.8.0.8.8.0.8.8.^     U.U.U.U.U.U.U.U.U.U.U.U.U.U.",
"U.U.U.U.U.U.U.U.U.U.U.U.U.                                                                            U.U.U.U.U.U.U.U.U.U.U.U.U.",
"U.U.U.U.U.U.U.U.U.U.U.U.U.                                                                              U.U.U.U.U.U.U.U.U.U.U.U.",
"U.U.U.U.U.U.U.U.U.U.U.U.U.U.U.U.U.U.U.U.U.U.U.U.U.U.U.U.U.U.U.U.U.U.U.U.U.U.U.U.U.U.U.U.U.U.U.U.U.U.U.U.U.U.U.U.U.U.U.U.U.U.U.U.",
"U.U.U.U.U.U.U.U.U.U.U.U.U.U.U.U.U.U.U.U.U.U.U.U.U.U.U.U.U.U.U.U.U.U.U.U.U.U.U.U.U.U.U.U.U.U.U.U.U.U.U.U.U.U.U.U.U.U.U.U.U.U.U.U.",
"U.U.U.U.U.U.U.U.U.U.U.U.U.U.U.U.U.U.U.U.U.U.U.U.U.U.U.U.U.U.U.U.U.U.U.U.U.U.U.U.U.U.U.U.U.U.U.U.U.U.U.U.U.U.U.U.U.U.U.U.U.U.U.U.",
"U.U.U.U.U.U.U.U.U.U.U.                                                                                      U.U.U.U.U.U.U.U.U.U.",
"U.U.U.U.U.U.U.U.U.U.U.                                  * 7                                                 U.U.U.U.U.U.U.U.U.U.",
"U.U.U.U.U.U.U.U.U.U.U.    [ I.I.A.g.H   >.I.I.I.c   % ,.A.I.c.n   o.I.I.I.t.k I.I.H t.I.a.3 I.I.I.b.-.>     U.U.U.U.U.U.U.U.U.U.",
"U.U.U.U.U.U.U.U.U.U.U.    [ I.I.j.I.G.- t.I.I.I.Y   [ I.A.7.I.V.> +.I.I.I.t.k I.I.H t.I.a.7 I.I.b.G.I.Q     U.U.U.U.U.U.U.U.U.U.",
"U.U.U.U.U.U.U.U.U.U.U.    [ I.I.e I.I.9 V.I.V.I.|   3.I.d.B I.I.k o.I.I.- O k I.I.H t.I.a.3 I.I.^ $.I. .    U.U.U.U.U.U.U.U.U.U.",
"U.U.U.U.U.U.U.U.U.U.U.    [ I.I.q I.I.f I.I.3.I.3.  t.I.t.f 0.8.z o.I.I.%   k I.I.H t.I.a.3 I.I.^ o.I.o.    U.U.U.U.U.U.U.U.U.U.",
"U.U.U.U.U.U.U.U.U.U.U.    [ I.I.8.I.I.k I.I.) I.j.  a.I.t.t k k > o.I.I.I.,.k I.I.H t.I.a.3 I.I.d.V.I.~     U.U.U.U.U.U.U.U.U.U.",
"U.U.U.U.U.U.U.U.U.U.U.    [ I.I.I.G. .Z I.I.n I.I.* a.I.t.7.I.I.Z o.I.I.m.-.k I.I.H w.I.a.3 I.I.I.I.g.q     U.U.U.U.U.U.U.U.U.U.",
"U.U.U.U.U.U.U.U.U.U.U.    [ I.I.t O   Q I.A.) I.I.e a.I.t.H I.I.Z +.I.I.%   f I.I.H t.I.a.7 I.I.| -         U.U.U.U.U.U.U.U.U.U.",
"U.U.U.U.U.U.U.U.U.U.U.    [ I.I.>      .I.I.I.I.I.B w.I.t.f I.I.Z +.I.I.O   p I.I.K t.I.t.3 I.I.)           U.U.U.U.U.U.U.U.U.U.",
"U.U.U.U.U.U.U.U.U.U.U.    [ I.I.>     3.I.V.Y I.I.Q -.I.V.| I.I.Z o.I.I.t.t.3 I.I.$.m.I.,.7 I.I.^           U.U.U.U.U.U.U.U.U.U.",
"U.U.U.U.U.U.U.U.U.U.U.    [ I.I.>     g.I.d.O I.I.$.d A.I.I.a.I.Z o.I.I.I.I.  ` I.I.I.V.d 3 I.I.)           U.U.U.U.U.U.U.U.U.U.",
"U.U.U.U.U.U.U.U.U.U.U.    9 k f O     f k t   f k e   3 D k > k > q k k f k     e D S 3   % f k 7           U.U.U.U.U.U.U.U.U.U.",
"U.U.U.U.U.U.U.U.U.U.U.                                                                                      U.U.U.U.U.U.U.U.U.U.",
"U.U.U.U.U.U.U.U.U.U.U.U.U.U.U.U.U.U.U.U.U.U.U.U.U.U.U.U.U.U.U.U.U.U.U.U.U.U.U.U.U.U.U.U.U.U.U.U.U.U.U.U.U.U.U.U.U.U.U.U.U.U.U.U.",
"U.U.U.U.U.U.U.U.U.U.U.U.U.U.U.U.U.U.U.U.U.U.U.U.U.U.U.U.U.U.U.U.U.U.U.U.U.U.U.U.U.U.U.U.U.U.U.U.U.U.U.U.U.U.U.U.U.U.U.U.U.U.U.U.",
"U.U.U.U.U.U.U.U.U.U.U.U.U.U.U.U.U.U.U.U.U.U.U.U.U.U.U.U.U.U.U.U.U.U.U.U.U.U.U.U.U.U.U.U.U.U.U.U.U.U.U.U.U.U.U.U.U.U.U.U.U.U.U.U.",
"U.U.U.U.U.U.U.U.U.U.U.U.U.U.U.U.U.U.U.U.U.U.U.U.U.U.U.U.U.U.U.U.U.U.U.U.U.U.U.U.U.U.U.U.U.U.U.U.U.U.U.U.U.U.U.U.U.U.U.U.U.U.U.U.",
"U.U.U.U.U.U.U.U.U.U.U.U.U.U.U.U.U.U.U.U.U.U.U.U.U.U.U.U.U.U.U.U.U.U.U.U.U.U.U.U.U.U.U.U.U.U.U.U.U.U.U.U.U.U.U.U.U.U.U.U.U.U.U.U."
};
