/* XPM */
static char *prev[] = {
/* columns rows colors chars-per-pixel */
"64 64 150 2 ",
"   c black",
".  c #010101",
"X  c gray1",
"o  c #040404",
"O  c gray2",
"+  c #070707",
"@  c gray4",
"#  c #0B0B0B",
"$  c #0C0C0C",
"%  c #0E0E0E",
"&  c #101010",
"*  c #111111",
"=  c #131313",
"-  c gray8",
";  c #151515",
":  c #161616",
">  c gray9",
",  c #181818",
"<  c gray10",
"1  c #1B1B1B",
"2  c gray11",
"3  c #1E1E1E",
"4  c gray12",
"5  c #202020",
"6  c #232323",
"7  c #252525",
"8  c gray15",
"9  c #272727",
"0  c #282828",
"q  c gray16",
"w  c #2A2A2A",
"e  c #2C2C2C",
"r  c #2D2D2D",
"t  c gray18",
"y  c #2F2F2F",
"u  c gray19",
"i  c #323232",
"p  c gray20",
"a  c #353535",
"s  c gray21",
"d  c #373737",
"f  c #3A3A3A",
"g  c gray23",
"h  c #3C3C3C",
"j  c gray24",
"k  c #3E3E3E",
"l  c #3F3F3F",
"z  c gray25",
"x  c #414141",
"c  c gray26",
"v  c #434343",
"b  c #444444",
"n  c #464646",
"m  c #484848",
"M  c #494949",
"N  c gray29",
"B  c #4E4E4E",
"V  c gray31",
"C  c #505050",
"Z  c gray32",
"A  c #535353",
"S  c gray34",
"D  c gray35",
"F  c gray37",
"G  c #5F5F5F",
"H  c gray39",
"J  c #646464",
"K  c #656565",
"L  c #6A6A6A",
"P  c gray44",
"I  c #717171",
"U  c gray46",
"Y  c #767676",
"T  c #777777",
"R  c #797979",
"E  c gray48",
"W  c #7C7C7C",
"Q  c #7E7E7E",
"!  c #808080",
"~  c #818181",
"^  c gray51",
"/  c #848484",
"(  c gray53",
")  c #888888",
"_  c #898989",
"`  c gray55",
"'  c #8E8E8E",
"]  c gray57",
"[  c #939393",
"{  c gray59",
"}  c #979797",
"|  c #989898",
" . c #9B9B9B",
".. c #9D9D9D",
"X. c gray62",
"o. c #9F9F9F",
"O. c #A0A0A0",
"+. c #A2A2A2",
"@. c gray64",
"#. c gray65",
"$. c gray66",
"%. c #AAAAAA",
"&. c gray69",
"*. c #B1B1B1",
"=. c gray70",
"-. c gray71",
";. c #B7B7B7",
":. c gray72",
">. c #B9B9B9",
",. c gray75",
"<. c #C1C1C1",
"1. c gray77",
"2. c #C6C6C6",
"3. c gray78",
"4. c #C8C8C8",
"5. c gray79",
"6. c #CBCBCB",
"7. c gray81",
"8. c gray82",
"9. c gray83",
"0. c #D5D5D5",
"q. c gray84",
"w. c #D7D7D7",
"e. c #D8D8D8",
"r. c gray85",
"t. c gray86",
"y. c gainsboro",
"u. c #DFDFDF",
"i. c gray88",
"p. c gray89",
"a. c #E4E4E4",
"s. c #E6E6E6",
"d. c #E7E7E7",
"f. c #EAEAEA",
"g. c gray92",
"h. c #ECECEC",
"j. c #EFEFEF",
"k. c gray94",
"l. c #F1F1F1",
"z. c gray95",
"x. c #F4F4F4",
"c. c gray96",
"v. c gray97",
"b. c #F8F8F8",
"n. c #F9F9F9",
"m. c gray98",
"M. c gray99",
"N. c #FDFDFD",
"B. c white",
"V. c None",
/* pixels */
"V.V.V.V.V.V.V.V.V.V.V.V.V.V.V.V.V.V.V.V.V.V.V.V.V.V.V.V.V.V.V.V.V.V.V.V.V.V.V.V.V.V.V.V.V.V.V.V.V.V.V.V.V.V.V.V.V.V.V.V.V.V.V.V.",
"V.V.V.V.V.V.V.V.V.V.V.V.V.V.V.V.V.V.V.V.V.V.V.V.V.V.V.V.V.V.V.V.V.V.V.V.V.V.V.V.V.V.V.V.V.V.V.V.V.V.V.V.V.V.V.V.V.V.V.V.V.V.V.V.",
"V.V.V.V.V.V.V.V.V.V.V.V.V.V.V.V.V.V.V.V.V.V.V.V.V.V.V.V.V.V.V.. V.V.V.V.V.V.V.V.V.V.V.V.V.V.V.V.V.V.V.V.V.V.V.V.V.V.V.V.V.V.V.V.",
"V.V.V.V.V.V.V.V.V.V.V.V.V.V.V.V.V.V.V.V.V.V.V.V.V.V.V.V.V.V.. . . V.V.V.V.V.V.V.V.V.V.V.V.V.V.V.V.V.V.V.V.V.V.V.V.V.V.V.V.V.V.V.",
"V.V.V.V.V.V.V.V.V.V.V.V.V.V.V.V.V.V.V.V.V.V.V.V.V.V.V.V.V.. . 7 . . V.V.V.V.V.V.V.V.V.V.V.V.V.V.V.V.V.V.V.V.V.V.V.V.V.V.V.V.V.V.",
"V.V.V.V.V.V.V.V.V.V.V.V.V.V.V.V.V.V.V.V.V.V.V.V.V.V.V.V.. . N b.J . . V.V.V.V.V.V.V.V.V.V.V.V.V.V.V.V.V.V.V.V.V.V.V.V.V.V.V.V.V.",
"V.V.V.V.V.V.V.V.V.V.V.V.V.V.V.V.V.V.V.V.V.V.V.V.V.V.V.. . f c.B.B.Z . . V.V.V.V.V.V.V.V.V.V.V.V.V.V.V.V.V.V.V.V.V.V.V.V.V.V.V.V.",
"V.V.V.V.V.V.V.V.V.V.V.V.V.V.V.V.V.V.V.V.V.V.V.V.V.V.. . e j.B.B.B.c.z . . V.V.V.V.V.V.V.V.V.V.V.V.V.V.V.V.V.V.V.V.V.V.V.V.V.V.V.",
"V.V.V.V.V.V.V.V.V.V.V.V.V.V.V.V.V.V.V.V.V.V.V.V.V.V.. 6 s.B.B.B.B.B.z.i . . V.V.V.V.V.V.V.V.V.V.V.V.V.V.V.V.V.V.V.V.V.V.V.V.V.V.",
"V.V.V.V.V.V.V.V.V.V.V.V.V.V.V.V.V.V.V.V.V.V.V.V.V.. - t.B.B.B.B.B.B.B.f.7 . . V.V.V.V.V.V.V.V.V.V.V.V.V.V.V.V.V.V.V.V.V.V.V.V.V.",
"V.V.V.V.V.V.V.V.V.V.V.V.V.V.V.V.V.V.V.V.V.V.V.V.. % 7.B.B.B.B.B.B.B.B.B.u.< . V.V.V.V.V.V.V.V.V.V.V.V.V.V.V.V.V.V.V.V.V.V.V.V.V.",
"V.V.V.V.V.V.V.V.V.V.V.V.V.V.V.V.V.V.V.V.V.V.V.. + <.B.B.B.B.B.B.B.B.B.B.B.q.* . V.V.V.V.V.V.V.V.V.V.V.V.V.V.V.V.V.V.V.V.V.V.V.V.",
"V.V.V.V.V.V.V.V.V.V.V.V.V.V.V.V.V.V.V.V.V.V.. . &.B.B.B.B.B.B.B.B.B.B.B.B.B.3.@ . V.V.V.V.V.V.V.V.V.V.V.V.V.V.V.V.V.V.V.V.V.V.V.",
"V.V.V.V.V.V.V.V.V.V.V.V.V.V.V.V.V.V.V.V.V.. . o.B.B.B.B.B.B.B.B.B.B.B.B.B.B.B.;.+ . V.V.V.V.V.V.V.V.V.V.V.V.V.V.V.V.V.V.V.V.V.V.",
"V.V.V.V.V.V.V.V.V.V.V.V.V.V.V.V.V.V.V.V.. . ` B.B.B.B.B.B.B.B.B.B.B.B.B.B.B.B.B.@.. . V.V.V.V.V.V.V.V.V.V.V.V.V.V.V.V.V.V.V.V.V.",
"V.V.V.V.V.V.V.V.V.V.V.V.V.V.V.V.V.V.V.. . T B.B.B.B.B.B.B.B.B.B.B.B.B.B.B.B.B.B.B.] . . V.V.V.V.V.V.V.V.V.V.V.V.V.V.V.V.V.V.V.V.",
"V.V.V.V.V.V.V.V.V.V.V.V.V.V.V.V.V.V.. . H B.B.B.B.B.B.B.B.B.B.B.B.B.B.B.B.B.B.B.B.B.W . . V.V.V.V.V.V.V.V.V.V.V.V.V.V.V.V.V.V.V.",
"V.V.V.V.V.V.V.V.V.V.V.V.V.V.V.V.V.. . Z B.B.B.B.B.B.B.B.B.B.B.B.B.B.B.B.B.B.B.B.B.B.B.L . . V.V.V.V.V.V.V.V.V.V.V.V.V.V.V.V.V.V.",
"V.V.V.V.V.V.V.V.V.V.V.V.V.V.V.V.. . z b.B.B.B.B.B.B.B.B.B.B.B.B.B.B.B.B.B.B.B.B.B.B.B.B.S . . V.V.V.V.V.V.V.V.V.V.V.V.V.V.V.V.V.",
"V.V.V.V.V.V.V.V.V.V.V.V.V.V.V.. . i z.B.B.B.B.B.B.B.B.B.B.B.B.B.B.B.B.B.B.B.B.B.B.B.B.B.b.n . . V.V.V.V.V.V.V.V.V.V.V.V.V.V.V.V.",
"V.V.V.V.V.V.V.V.V.V.V.V.V.V.. . 7 f.B.B.B.B.B.B.B.B.B.B.B.B.B.B.B.B.B.B.B.B.B.B.B.B.B.B.B.c.a . . V.V.V.V.V.V.V.V.V.V.V.V.V.V.V.",
"V.V.V.V.V.V.V.V.V.V.V.V.V.V.. < u.B.B.B.B.B.B.B.B.B.B.B.B.B.B.B.B.B.B.B.B.B.B.B.B.B.B.B.B.B.j.7 . . V.V.V.V.V.V.V.V.V.V.V.V.V.V.",
"V.V.V.V.V.V.V.V.V.V.V.V.V.. * q.B.B.B.B.B.B.B.B.B.B.B.B.B.B.B.B.B.B.B.B.B.B.B.B.B.B.B.B.B.B.B.i.< . V.V.V.V.V.V.V.V.V.V.V.V.V.V.",
"V.V.V.V.V.V.V.V.V.V.V.V.. @ 4.B.B.B.B.B.B.B.B.B.B.B.B.B.B.B.B.B.B.B.B.B.B.B.B.B.B.B.B.B.B.B.B.B.q.- . V.V.V.V.V.V.V.V.V.V.V.V.V.",
"V.V.V.V.V.V.V.V.V.V.V.. . ] q.q.q.q.q.q.q.q.q.i.B.B.B.B.B.B.B.B.B.B.B.B.B.B.c.q.q.q.q.q.q.t.q.q.q.+.. . V.V.V.V.V.V.V.V.V.V.V.V.",
"V.V.V.V.V.V.V.V.V.V.. . . . . . . . . . . . . i B.B.B.B.B.B.B.B.B.B.B.B.B.B.,.. . . . . . . . . . . . . . V.V.V.V.V.V.V.V.V.V.V.",
"V.V.V.V.V.V.V.V.V.. . . . . . . . . . . . . . e B.B.B.B.B.B.B.B.B.B.B.B.B.B.,.. . . . . . . . . . . . . . . V.V.V.V.V.V.V.V.V.V.",
"V.V.V.V.V.V.V.V.V.V.V.V.V.V.V.V.V.V.V.V.V.V.. 7 B.B.B.B.B.B.B.B.B.B.B.B.B.B.,.. . V.V.V.V.V.V.V.V.V.V.V.V.V.V.V.V.V.V.V.V.V.V.V.",
"V.V.V.V.V.V.V.V.V.V.V.V.V.V.V.V.V.V.V.V.V.V.. 6 B.B.B.B.B.B.B.B.B.B.B.B.B.B.,.. . V.V.V.V.V.V.V.V.V.V.V.V.V.V.V.V.V.V.V.V.V.V.V.",
"V.V.V.V.V.V.V.V.V.V.V.V.V.V.V.V.V.V.V.V.V.V.. 3 B.B.B.B.B.B.B.B.B.B.B.B.B.B.,.. . V.V.V.V.V.V.V.V.V.V.V.V.V.V.V.V.V.V.V.V.V.V.V.",
"V.V.V.V.V.V.V.V.V.V.V.V.V.V.V.V.V.V.V.V.V.V.. < B.B.B.B.B.B.B.B.B.B.B.B.B.B.,.. . V.V.V.V.V.V.V.V.V.V.V.V.V.V.V.V.V.V.V.V.V.V.V.",
"V.V.V.V.V.V.V.V.V.V.V.V.V.V.V.V.V.V.V.V.V.V.. - B.B.B.B.B.B.B.B.B.B.B.B.B.B.,.. . V.V.V.V.V.V.V.V.V.V.V.V.V.V.V.V.V.V.V.V.V.V.V.",
"V.V.V.V.V.V.V.V.V.V.V.V.V.V.V.V.V.V.V.V.V.V.. * B.B.B.B.B.B.B.B.B.B.B.B.B.B.,.. . V.V.V.V.V.V.V.V.V.V.V.V.V.V.V.V.V.V.V.V.V.V.V.",
"V.V.V.V.V.V.V.V.V.V.V.V.V.V.V.V.V.V.V.V.V.V.. @ B.B.B.B.B.B.B.B.B.B.B.B.B.B.,.. . V.V.V.V.V.V.V.V.V.V.V.V.V.V.V.V.V.V.V.V.V.V.V.",
"V.V.V.V.V.V.V.V.V.V.V.V.V.V.V.V.V.V.V.V.V.V.. + B.B.B.B.B.B.B.B.B.B.B.B.B.B.,.. . V.V.V.V.V.V.V.V.V.V.V.V.V.V.V.V.V.V.V.V.V.V.V.",
"V.V.V.V.V.V.V.V.V.V.V.V.V.V.V.V.V.V.V.V.V.V.. . B.B.B.B.B.B.B.B.B.B.B.B.B.B.,.. . V.V.V.V.V.V.V.V.V.V.V.V.V.V.V.V.V.V.V.V.V.V.V.",
"V.V.V.V.V.V.V.V.V.V.V.V.V.V.V.V.V.V.V.V.V.V.. . e i e i e i e e i e i e e e 7 . . V.V.V.V.V.V.V.V.V.V.V.V.V.V.V.V.V.V.V.V.V.V.V.",
"V.V.V.V.V.V.V.V.V.V.V.V.V.V.V.V.V.V.V.V.V.V.. . . . . . . . . . . . . . . . . . . V.V.V.V.V.V.V.V.V.V.V.V.V.V.V.V.V.V.V.V.V.V.V.",
"V.V.V.V.V.V.V.V.V.V.V.V.V.V.V.V.V.V.V.V.V.V.V.V.V.V.V.V.V.V.V.V.V.V.V.V.V.V.V.V.V.V.V.V.V.V.V.V.V.V.V.V.V.V.V.V.V.V.V.V.V.V.V.V.",
"V.V.V.V.V.V.V.V.V.V.V.V.V.V.V.V.V.V.V.V.V.V.V.V.V.V.V.V.V.V.V.V.V.V.V.V.V.V.V.V.V.V.V.V.V.V.V.V.V.V.V.V.V.V.V.V.V.V.V.V.V.V.V.V.",
"V.V.V.V.V.V.V.V.V.V.V.V.V.V.V.V.V.V.V.V.V.V.V.V.V.V.V.V.V.V.V.V.V.V.V.V.V.V.V.V.V.V.V.V.V.V.V.V.V.V.V.V.V.V.V.V.V.V.V.V.V.V.V.V.",
"V.V.V.V.V.V.V.V.. . . . . . . . . . . . . . . . . . . . . . . . . . . . . . . . . . . . . . . . . . . . . . . V.V.V.V.V.V.V.V.V.",
"V.V.V.V.V.V.V.. . . . . . . . . . . . . . . . . . . . . . . . . . . . . . . . . . . . . . . . . . . . . . . . . V.V.V.V.V.V.V.V.",
"V.V.V.V.V.V.V.. . N V V V N e - . . . . . n Z V N j 0 3 . . . . . + Z V V Z V Z j . . a V Z V i . < Z V V V . . V.V.V.V.V.V.V.V.",
"V.V.V.V.V.V.V.. . f.B.B.B.B.B.B.$.- . . . i.B.B.B.B.B.B.>.< . . . - B.B.B.B.B.B.3.. . | B.B.B.;.. L B.B.B.s.. . V.V.V.V.V.V.V.V.",
"V.V.V.V.V.V.V.. . f.B.B.B.B.B.B.B.` . . . u.B.B.B.B.B.B.B.q.. . . < B.B.B.B.B.B.3.. . L B.B.B.q.. ~ B.B.B.3.. . V.V.V.V.V.V.V.V.",
"V.V.V.V.V.V.V.. . f.B.B.B.| u.B.B.8.. . . i.B.B.B.o.s.B.B.B.0 . . < B.B.B.B.t.q.@.. . N B.B.B.j.. | B.B.B.+.. . V.V.V.V.V.V.V.V.",
"V.V.V.V.V.V.V.. . f.B.B.B.a _ B.B.s.. . . i.B.B.B.j ` B.B.B.z . . - B.B.B.B.+ . . . . 6 B.B.B.B.% &.B.B.B.W . . V.V.V.V.V.V.V.V.",
"V.V.V.V.V.V.V.. . f.B.B.B.a R B.B.c.. . . u.B.B.B.j _ B.B.B.a . . - B.B.B.B.+ . . . . . b.B.B.B.7 3.B.B.B.F . . V.V.V.V.V.V.V.V.",
"V.V.V.V.V.V.V.. . f.B.B.B.a { B.B.z.. . . i.B.B.B.F 3.B.B.B.@ . . < B.B.B.B.e 0 - . . . q.B.B.B.n t.B.B.B.j . . V.V.V.V.V.V.V.V.",
"V.V.V.V.V.V.V.. . f.B.B.B.&.z.B.B.8.. . . i.B.B.B.B.B.B.b.| . . . - B.B.B.B.B.B.| . . . &.B.B.B.D z.B.B.B.< . . V.V.V.V.V.V.V.V.",
"V.V.V.V.V.V.V.. . f.B.B.B.B.B.B.B.o.. . . u.B.B.B.B.B.B.o.* . . . < B.B.B.B.B.B.{ . . . _ B.B.B.T B.B.B.c.. . . V.V.V.V.V.V.V.V.",
"V.V.V.V.V.V.V.. . f.B.B.B.B.B.f.@.% . . . i.B.B.B.o.s.B.B.i.@ . . < B.B.B.B.u.u./ . . . H B.B.B.o.B.B.B.q.. . . V.V.V.V.V.V.V.V.",
"V.V.V.V.V.V.V.. . f.B.B.B.V - . . . . . . i.B.B.B.j | B.B.B.f . . - B.B.B.B.+ . . . . . j B.B.B.4.B.B.B.;.. . . V.V.V.V.V.V.V.V.",
"V.V.V.V.V.V.V.. . f.B.B.B.a . . . . . . . u.B.B.B.z ~ B.B.B.n . . - B.B.B.B.+ . . . . . - B.B.B.c.B.B.B.] . . . V.V.V.V.V.V.V.V.",
"V.V.V.V.V.V.V.. . f.B.B.B.a . . . . . . . i.B.B.B.j ~ B.B.B.V . . < B.B.B.B.+ . . . . . . j.B.B.B.B.B.B.P . . . V.V.V.V.V.V.V.V.",
"V.V.V.V.V.V.V.. . f.B.B.B.a . . . . . . . u.B.B.B.z ~ B.B.B.V . . - B.B.B.B.$.$.$.+ . . . 4.B.B.B.B.B.B.V . . . V.V.V.V.V.V.V.V.",
"V.V.V.V.V.V.V.. . f.B.B.B.a . . . . . . . i.B.B.B.z W B.B.B.V . . < B.B.B.B.B.B.B.+ . . . +.B.B.B.B.B.B.e . . . V.V.V.V.V.V.V.V.",
"V.V.V.V.V.V.V.. . f.B.B.B.a . . . . . . . i.B.B.B.j ~ B.B.B.V . . < B.B.B.B.B.B.B.+ . . . W B.B.B.B.B.B.@ . . . V.V.V.V.V.V.V.V.",
"V.V.V.V.V.V.V.. . T W ~ W < . . . . . . . L ~ ~ W 6 z ~ ~ W 7 . . @ W ~ ~ W ~ ~ ~ . . . . e ~ ~ W ~ W R . . . . V.V.V.V.V.V.V.V.",
"V.V.V.V.V.V.V.. . . . . . . . . . . . . . . . . . . . . . . . . . . . . . . . . . . . . . . . . . . . . . . . . V.V.V.V.V.V.V.V.",
"V.V.V.V.V.V.V.V.. . . . . . . . . . . . . . . . . . . . . . . . . . . . . . . . . . . . . . . . . . . . . . . V.V.V.V.V.V.V.V.V.",
"V.V.V.V.V.V.V.V.V.V.V.V.V.V.V.V.V.V.V.V.V.V.V.V.V.V.V.V.V.V.V.V.V.V.V.V.V.V.V.V.V.V.V.V.V.V.V.V.V.V.V.V.V.V.V.V.V.V.V.V.V.V.V.V.",
"V.V.V.V.V.V.V.V.V.V.V.V.V.V.V.V.V.V.V.V.V.V.V.V.V.V.V.V.V.V.V.V.V.V.V.V.V.V.V.V.V.V.V.V.V.V.V.V.V.V.V.V.V.V.V.V.V.V.V.V.V.V.V.V."
};
